<svg width="147" height="36" viewBox="0 0 147 36" fill="none" xmlns="http://www.w3.org/2000/svg">
<rect width="36" height="36" rx="18" fill="#323232"/>
<path d="M2.86694 17.8819L6.59409 25.7559C6.64022 25.8534 6.74563 25.9061 6.8492 25.8846C16.4468 23.8911 25.3358 25.0952 28.7837 25.9927C28.8895 26.0202 28.9963 25.9683 29.0454 25.8684L33.1314 17.5602C33.2459 17.3275 32.9629 17.1037 32.7723 17.2763L30.7993 19.0633L30.209 19.2369C30.0738 19.2767 29.9637 19.3773 29.9098 19.5105L29.3067 21.0003C29.0154 21.7197 28.4228 22.2659 27.6939 22.4865L27.5963 22.5161C27.1922 22.6384 26.7616 22.439 26.584 22.0474C26.292 21.4032 26.4584 20.6383 26.9899 20.1824L28.6346 18.7718C28.7449 18.6772 28.7449 18.5034 28.6346 18.4088L27.6154 17.5347C27.5208 17.4535 27.4618 17.3369 27.4516 17.2109L27.1716 13.753C27.1542 13.5385 26.8891 13.4572 26.7597 13.6267L24.5953 16.4619L23.1116 16.6655C22.9811 16.6834 22.8916 16.8094 22.915 16.9422L23.2548 18.8654C23.4405 19.9169 22.9937 20.9802 22.1206 21.5643C21.6249 21.896 20.9684 21.815 20.5635 21.3723L20.5252 21.3304C19.888 20.6336 19.8274 19.5697 20.3811 18.8016L21.8978 16.6975C21.9852 16.5763 21.9412 16.4033 21.8072 16.3412L19.9516 15.4818C19.8357 15.4281 19.7465 15.3278 19.7051 15.2045L18.0654 10.3193C17.9184 9.88125 17.3083 9.89818 17.1846 10.3438L15.8777 15.0514C15.7967 15.3432 15.5842 15.5775 15.3062 15.6816L13.5237 16.3487C13.3752 16.4043 13.3239 16.5929 13.4228 16.7192L14.8312 18.5166C15.5635 19.4511 15.544 20.7874 14.7847 21.699C14.3723 22.1942 13.6389 22.2327 13.1793 21.7834L12.903 21.5132C12.1772 20.8036 11.8823 19.7473 12.132 18.7515L12.581 16.9606C12.6158 16.8218 12.5233 16.6834 12.3845 16.6666L10.7954 16.4742C10.7306 16.4664 10.6721 16.4308 10.6343 16.3764L8.73304 13.6368C8.61188 13.4622 8.34482 13.5293 8.31618 13.7416L7.83485 17.3084C7.82627 17.372 7.79287 17.4292 7.74231 17.4671L6.6663 18.2725C6.60917 18.3153 6.60266 18.4002 6.65259 18.4516L8.3368 20.185C8.59537 20.4511 8.74054 20.8114 8.74054 21.187V21.3056C8.74054 22.0689 8.0167 22.6119 7.3069 22.3812C6.83623 22.2283 6.46556 21.8534 6.31 21.3731L5.75836 19.6698C5.68373 19.4394 5.49937 19.264 5.26961 19.2049L4.77864 19.0786C4.73982 19.0686 4.7042 19.0484 4.67528 19.0201L3.23425 17.6075C3.04822 17.4252 2.75458 17.6445 2.86694 17.8819Z" fill="#FAC30F"/>
<path d="M45.054 13.14C42.38 13.14 40.574 11.362 40.574 8.1C40.574 4.852 42.38 3.074 45.068 3.074C47.098 3.074 48.68 4.096 48.96 6.238H47.532C47.224 4.964 46.286 4.334 45.026 4.334C43.15 4.334 42.044 5.748 42.044 8.1C42.044 10.452 43.136 11.88 45.026 11.88C46.286 11.88 47.224 11.25 47.532 9.962H48.96C48.68 12.118 47.098 13.14 45.054 13.14ZM52.2489 13.14C50.8909 13.14 49.8129 12.538 49.8129 11.096C49.8129 9.696 50.8349 9.122 52.1369 8.968L53.9429 8.758C54.6149 8.674 54.8389 8.548 54.8389 8.324V8.128C54.8389 6.966 54.2369 6.658 53.2149 6.658C52.1649 6.658 51.5769 6.966 51.5769 7.89V8.058H50.2189V7.764C50.2189 6.308 51.2409 5.58 53.2429 5.58C55.3009 5.58 56.2529 6.35 56.2529 8.114V13H54.9229V11.824H54.8669C54.7269 12.104 54.0409 13.14 52.2489 13.14ZM51.2269 11.026C51.2269 11.712 51.7169 12.034 52.5989 12.034C54.1389 12.034 54.8389 11.082 54.8389 10.298V9.5C54.7409 9.654 54.5589 9.752 53.8449 9.836L52.4729 10.018C51.5629 10.13 51.2269 10.452 51.2269 11.026ZM59.2878 9.36V13H57.8738V5.72H59.2878V7.4H59.3158C59.5398 6.546 60.2258 5.664 61.5558 5.664C61.7378 5.664 61.9338 5.678 62.1018 5.734V6.924C61.9198 6.896 61.7518 6.882 61.5698 6.882C60.2118 6.882 59.2878 7.736 59.2878 9.36ZM63.1785 13V5.72H64.5925V13H63.1785ZM63.0385 3.62C63.0385 3.158 63.4305 2.78 63.8785 2.78C64.3265 2.78 64.7185 3.158 64.7185 3.62C64.7185 4.096 64.3265 4.46 63.8785 4.46C63.4305 4.46 63.0385 4.096 63.0385 3.62ZM75.595 8.786C75.595 7.484 75.091 6.77 74.027 6.77C73.005 6.77 72.291 7.484 72.291 8.786V13H70.877V8.786C70.877 7.484 70.359 6.77 69.309 6.77C68.287 6.77 67.573 7.484 67.573 8.786V13H66.159V5.72H67.573V7.176H67.615C67.727 6.63 68.427 5.58 69.869 5.58C70.891 5.58 71.773 6.07 72.123 7.232C72.291 6.644 73.005 5.58 74.531 5.58C75.945 5.58 77.009 6.406 77.009 8.464V13H75.595V8.786ZM81.7651 13.14C79.9591 13.14 78.2231 11.964 78.2231 9.36C78.2231 6.756 79.9591 5.58 81.7651 5.58C83.5851 5.58 85.3211 6.756 85.3211 9.36C85.3211 11.964 83.5851 13.14 81.7651 13.14ZM79.5671 9.36C79.5671 11.152 80.5891 11.95 81.7651 11.95C82.9411 11.95 83.9771 11.152 83.9771 9.36C83.9771 7.568 82.9411 6.77 81.7651 6.77C80.5891 6.77 79.5671 7.568 79.5671 9.36ZM89.7703 13V3.2H96.1403V4.474H91.2263V7.414H95.7203V8.576H91.2263V11.726H96.2803V13H89.7703ZM106.931 8.786C106.931 7.484 106.427 6.77 105.363 6.77C104.341 6.77 103.627 7.484 103.627 8.786V13H102.213V8.786C102.213 7.484 101.695 6.77 100.645 6.77C99.6229 6.77 98.9089 7.484 98.9089 8.786V13H97.4949V5.72H98.9089V7.176H98.9509C99.0629 6.63 99.7629 5.58 101.205 5.58C102.227 5.58 103.109 6.07 103.459 7.232C103.627 6.644 104.341 5.58 105.867 5.58C107.281 5.58 108.345 6.406 108.345 8.464V13H106.931V8.786ZM109.909 15.66V5.72H111.323V6.868C111.757 6.07 112.681 5.58 113.759 5.58C115.383 5.58 117.007 6.714 117.007 9.36C117.007 11.992 115.383 13.14 113.759 13.14C112.681 13.14 111.757 12.65 111.323 11.852V15.66H109.909ZM111.253 9.36C111.253 11.138 112.345 11.95 113.465 11.95C114.599 11.95 115.663 11.138 115.663 9.36C115.663 7.582 114.599 6.77 113.465 6.77C112.345 6.77 111.253 7.582 111.253 9.36ZM118.222 13V5.72H119.636V13H118.222ZM118.082 3.62C118.082 3.158 118.474 2.78 118.922 2.78C119.37 2.78 119.762 3.158 119.762 3.62C119.762 4.096 119.37 4.46 118.922 4.46C118.474 4.46 118.082 4.096 118.082 3.62ZM122.616 9.36V13H121.202V5.72H122.616V7.4H122.644C122.868 6.546 123.554 5.664 124.884 5.664C125.066 5.664 125.262 5.678 125.43 5.734V6.924C125.248 6.896 125.08 6.882 124.898 6.882C123.54 6.882 122.616 7.736 122.616 9.36ZM129.48 13.14C127.52 13.14 125.952 11.992 125.952 9.374C125.952 6.7 127.548 5.58 129.424 5.58C131.3 5.58 132.742 6.714 132.742 9.262C132.742 9.514 132.728 9.654 132.7 9.808H127.31C127.422 11.334 128.192 12.034 129.494 12.034C130.39 12.034 131.076 11.712 131.384 10.858H132.644C132.21 12.482 130.964 13.14 129.48 13.14ZM127.324 8.744H131.398C131.37 7.47 130.656 6.686 129.41 6.686C128.248 6.686 127.45 7.358 127.324 8.744Z" fill="#E8E8E8"/>
<path d="M43.732 30.12C41.62 30.12 40.516 29.052 40.516 27.552H41.512C41.572 28.512 42.232 29.268 43.744 29.268C45.124 29.268 45.808 28.632 45.808 27.684C45.808 26.748 45.136 26.364 44.152 26.172L43.036 25.944C41.572 25.656 40.756 24.948 40.756 23.736C40.756 22.368 41.788 21.492 43.672 21.492C45.532 21.492 46.588 22.368 46.588 23.736H45.604C45.568 22.932 44.944 22.332 43.66 22.332C42.328 22.332 41.788 22.956 41.788 23.736C41.788 24.42 42.208 24.924 43.312 25.14L44.392 25.356C45.928 25.668 46.84 26.304 46.84 27.672C46.84 29.232 45.652 30.12 43.732 30.12ZM49.0154 27.42C49.0154 28.608 49.5194 29.304 50.6234 29.304C51.7274 29.304 52.4594 28.608 52.4594 27.42V23.76H53.4194V30H52.4594V28.776H52.4354C52.3274 29.196 51.7274 30.12 50.2874 30.12C49.0514 30.12 48.0554 29.448 48.0554 27.612V23.76H49.0154V27.42ZM54.8171 32.28V23.76H55.7771V24.792C56.2091 24.036 57.0611 23.64 57.9851 23.64C59.4251 23.64 60.7931 24.624 60.7931 26.88C60.7931 29.124 59.4251 30.12 57.9851 30.12C57.0611 30.12 56.2091 29.712 55.7771 28.956V32.28H54.8171ZM55.7291 26.88C55.7291 28.536 56.7491 29.304 57.8051 29.304C58.8731 29.304 59.8811 28.536 59.8811 26.88C59.8811 25.212 58.8731 24.444 57.8051 24.444C56.7491 24.444 55.7291 25.212 55.7291 26.88ZM64.5944 30.12C62.8784 30.12 61.6304 29.088 61.6304 26.892C61.6304 24.624 62.9504 23.64 64.5464 23.64C66.1544 23.64 67.3304 24.648 67.3304 26.736C67.3304 26.94 67.3184 27.06 67.2944 27.18H62.5544C62.6264 28.644 63.3464 29.352 64.6064 29.352C65.3744 29.352 66.0704 29.1 66.3704 28.248H67.2464C66.8384 29.628 65.7824 30.12 64.5944 30.12ZM62.5544 26.448H66.4064C66.3944 25.14 65.6864 24.396 64.5344 24.396C63.4424 24.396 62.6504 25.056 62.5544 26.448ZM69.3708 26.712V30H68.4108V23.76H69.3708V25.152H69.3948C69.5628 24.504 70.1508 23.712 71.3628 23.712C71.5188 23.712 71.6868 23.724 71.8308 23.772V24.588C71.6748 24.564 71.5308 24.552 71.3748 24.552C70.1148 24.552 69.3708 25.38 69.3708 26.712ZM71.776 30L74.98 21.6H76.204L79.408 30H78.364L77.584 27.9H73.6L72.82 30H71.776ZM73.888 27.132H77.296L75.628 22.668H75.556L73.888 27.132ZM82.5084 30.12C81.0684 30.12 79.7004 29.124 79.7004 26.88C79.7004 24.624 81.0684 23.64 82.5084 23.64C83.4324 23.64 84.2844 24.036 84.7164 24.792V21.6H85.6764V30H84.7164V28.956C84.2844 29.712 83.4324 30.12 82.5084 30.12ZM80.6124 26.88C80.6124 28.536 81.6204 29.304 82.6884 29.304C83.7444 29.304 84.7644 28.536 84.7644 26.88C84.7644 25.212 83.7444 24.444 82.6884 24.444C81.6204 24.444 80.6124 25.212 80.6124 26.88ZM95.2871 26.34C95.2871 25.152 94.8191 24.456 93.7871 24.456C92.7911 24.456 92.1311 25.152 92.1311 26.34V30H91.1711V26.34C91.1711 25.152 90.7151 24.456 89.6831 24.456C88.6871 24.456 88.0271 25.152 88.0271 26.34V30H87.0671V23.76H88.0271V24.984H88.0511C88.1471 24.564 88.7231 23.64 90.0311 23.64C90.9191 23.64 91.6751 24.036 91.9871 25.044C92.1431 24.576 92.7311 23.64 94.0991 23.64C95.2991 23.64 96.2471 24.312 96.2471 26.148V30H95.2871V26.34ZM97.6257 30V23.76H98.5857V30H97.6257ZM97.4937 21.912C97.4937 21.576 97.7817 21.312 98.1057 21.312C98.4297 21.312 98.7057 21.576 98.7057 21.912C98.7057 22.248 98.4297 22.524 98.1057 22.524C97.7817 22.524 97.4937 22.248 97.4937 21.912ZM104.373 26.34C104.373 25.152 103.869 24.456 102.765 24.456C101.661 24.456 100.929 25.152 100.929 26.34V30H99.9694V23.76H100.929V24.984H100.953C101.061 24.564 101.661 23.64 103.101 23.64C104.337 23.64 105.333 24.312 105.333 26.148V30H104.373V26.34Z" fill="#BABABA"/>
</svg>
