<svg width="811" height="399" viewBox="0 0 811 399" fill="none" xmlns="http://www.w3.org/2000/svg">
<rect x="1" y="1" width="809" height="397" rx="7" fill="white"/>
<rect x="1" y="1" width="809" height="397" rx="7" stroke="#E8E8E8" stroke-width="2"/>
<path d="M17.008 34V21.4H18.88V32.362H25.126V34H17.008ZM30.428 34.18C27.908 34.18 25.892 32.704 25.892 29.338C25.892 25.9 27.944 24.46 30.356 24.46C32.768 24.46 34.622 25.918 34.622 29.194C34.622 29.518 34.604 29.698 34.568 29.896H27.638C27.782 31.858 28.772 32.758 30.446 32.758C31.598 32.758 32.48 32.344 32.876 31.246H34.496C33.938 33.334 32.336 34.18 30.428 34.18ZM27.656 28.528H32.894C32.858 26.89 31.94 25.882 30.338 25.882C28.844 25.882 27.818 26.746 27.656 28.528ZM39.5517 34.18C37.3017 34.18 35.6997 33.244 35.6457 31.21H37.2837C37.4277 32.362 38.4177 32.776 39.5697 32.776C40.7217 32.776 41.6217 32.362 41.6217 31.354C41.6217 30.598 41.0997 30.292 40.2177 30.094L38.4717 29.698C36.7077 29.284 35.9157 28.384 35.9157 27.124C35.9157 25.414 37.3737 24.46 39.5517 24.46C41.7837 24.46 43.1337 25.468 43.2237 27.394H41.6937C41.5317 26.242 40.7397 25.864 39.5697 25.864C38.3457 25.864 37.6797 26.278 37.6797 27.088C37.6797 27.736 38.0937 28.132 39.0657 28.348L40.8297 28.744C42.3417 29.104 43.4757 29.716 43.4757 31.318C43.4757 33.388 41.6037 34.18 39.5517 34.18ZM52.0217 34L48.4757 24.64H50.3297L53.1377 32.272H53.2097L56.0177 24.64H57.8717L54.3077 34H52.0217ZM62.7014 34.18C60.1814 34.18 58.1654 32.704 58.1654 29.338C58.1654 25.9 60.2174 24.46 62.6294 24.46C65.0414 24.46 66.8954 25.918 66.8954 29.194C66.8954 29.518 66.8774 29.698 66.8414 29.896H59.9114C60.0554 31.858 61.0454 32.758 62.7194 32.758C63.8714 32.758 64.7534 32.344 65.1494 31.246H66.7694C66.2114 33.334 64.6094 34.18 62.7014 34.18ZM59.9294 28.528H65.1674C65.1314 26.89 64.2134 25.882 62.6114 25.882C61.1174 25.882 60.0914 26.746 59.9294 28.528ZM74.9752 28.582C74.9752 26.908 74.2552 25.99 72.7792 25.99C71.3032 25.99 70.2772 26.908 70.2772 28.582V34H68.4592V24.64H70.2772V26.512H70.3312C70.4932 25.81 71.3932 24.46 73.4812 24.46C75.3172 24.46 76.7932 25.522 76.7932 28.168V34H74.9752V28.582ZM82.1649 34.126C80.5989 34.126 79.5369 33.46 79.5369 31.624V26.08H78.0069V24.64H79.5369V22.282H81.3549V24.64H83.2089V26.08H81.3549V31.318C81.3549 32.236 81.6609 32.65 82.6689 32.65C82.8849 32.65 83.0469 32.65 83.3349 32.614V33.982C82.9929 34.072 82.5969 34.126 82.1649 34.126ZM88.8049 34.18C86.2849 34.18 84.2689 32.704 84.2689 29.338C84.2689 25.9 86.3209 24.46 88.7329 24.46C91.1449 24.46 92.9989 25.918 92.9989 29.194C92.9989 29.518 92.9809 29.698 92.9449 29.896H86.0149C86.1589 31.858 87.1489 32.758 88.8229 32.758C89.9749 32.758 90.8569 32.344 91.2529 31.246H92.8729C92.3149 33.334 90.7129 34.18 88.8049 34.18ZM86.0329 28.528H91.2709C91.2349 26.89 90.3169 25.882 88.7149 25.882C87.2209 25.882 86.1949 26.746 86.0329 28.528ZM97.9287 34.18C95.6787 34.18 94.0767 33.244 94.0227 31.21H95.6607C95.8047 32.362 96.7947 32.776 97.9467 32.776C99.0987 32.776 99.9987 32.362 99.9987 31.354C99.9987 30.598 99.4767 30.292 98.5947 30.094L96.8487 29.698C95.0847 29.284 94.2927 28.384 94.2927 27.124C94.2927 25.414 95.7507 24.46 97.9287 24.46C100.161 24.46 101.511 25.468 101.601 27.394H100.071C99.9087 26.242 99.1167 25.864 97.9467 25.864C96.7227 25.864 96.0567 26.278 96.0567 27.088C96.0567 27.736 96.4707 28.132 97.4427 28.348L99.2067 28.744C100.719 29.104 101.853 29.716 101.853 31.318C101.853 33.388 99.9807 34.18 97.9287 34.18ZM111.209 34.18C109.121 34.18 107.033 32.704 107.033 29.32C107.033 25.918 109.121 24.46 111.209 24.46C112.595 24.46 113.783 25.09 114.341 26.116V21.4H116.159V34H114.341V32.524C113.783 33.55 112.595 34.18 111.209 34.18ZM108.761 29.32C108.761 31.606 110.129 32.65 111.587 32.65C113.027 32.65 114.431 31.606 114.431 29.32C114.431 27.034 113.027 25.99 111.587 25.99C110.129 25.99 108.761 27.034 108.761 29.32ZM122.256 34.18C119.736 34.18 117.72 32.704 117.72 29.338C117.72 25.9 119.772 24.46 122.184 24.46C124.596 24.46 126.45 25.918 126.45 29.194C126.45 29.518 126.432 29.698 126.396 29.896H119.466C119.61 31.858 120.6 32.758 122.274 32.758C123.426 32.758 124.308 32.344 124.704 31.246H126.324C125.766 33.334 124.164 34.18 122.256 34.18ZM119.484 28.528H124.722C124.686 26.89 123.768 25.882 122.166 25.882C120.672 25.882 119.646 26.746 119.484 28.528ZM132.162 37.42V24.64H133.98V26.116C134.538 25.09 135.726 24.46 137.112 24.46C139.2 24.46 141.288 25.918 141.288 29.32C141.288 32.704 139.2 34.18 137.112 34.18C135.726 34.18 134.538 33.55 133.98 32.524V37.42H132.162ZM133.89 29.32C133.89 31.606 135.294 32.65 136.734 32.65C138.192 32.65 139.56 31.606 139.56 29.32C139.56 27.034 138.192 25.99 136.734 25.99C135.294 25.99 133.89 27.034 133.89 29.32ZM144.668 29.32V34H142.85V24.64H144.668V26.8H144.704C144.992 25.702 145.874 24.568 147.584 24.568C147.818 24.568 148.07 24.586 148.286 24.658V26.188C148.052 26.152 147.836 26.134 147.602 26.134C145.856 26.134 144.668 27.232 144.668 29.32ZM153.51 34.18C151.188 34.18 148.956 32.668 148.956 29.32C148.956 25.972 151.188 24.46 153.51 24.46C155.85 24.46 158.082 25.972 158.082 29.32C158.082 32.668 155.85 34.18 153.51 34.18ZM150.684 29.32C150.684 31.624 151.998 32.65 153.51 32.65C155.022 32.65 156.354 31.624 156.354 29.32C156.354 27.016 155.022 25.99 153.51 25.99C151.998 25.99 150.684 27.016 150.684 29.32ZM163.468 34.18C161.38 34.18 159.292 32.704 159.292 29.32C159.292 25.918 161.38 24.46 163.468 24.46C164.854 24.46 166.042 25.09 166.6 26.116V21.4H168.418V34H166.6V32.524C166.042 33.55 164.854 34.18 163.468 34.18ZM161.02 29.32C161.02 31.606 162.388 32.65 163.846 32.65C165.286 32.65 166.69 31.606 166.69 29.32C166.69 27.034 165.286 25.99 163.846 25.99C162.388 25.99 161.02 27.034 161.02 29.32ZM172.248 30.058C172.248 31.732 172.968 32.65 174.444 32.65C175.92 32.65 176.946 31.732 176.946 30.058V24.64H178.764V34H176.946V32.128H176.892C176.73 32.83 175.83 34.18 173.742 34.18C171.906 34.18 170.43 33.118 170.43 30.472V24.64H172.248V30.058ZM180.783 34V24.64H182.601V34H180.783ZM180.603 21.94C180.603 21.346 181.107 20.86 181.683 20.86C182.259 20.86 182.763 21.346 182.763 21.94C182.763 22.552 182.259 23.02 181.683 23.02C181.107 23.02 180.603 22.552 180.603 21.94ZM188.143 34.126C186.577 34.126 185.515 33.46 185.515 31.624V26.08H183.985V24.64H185.515V22.282H187.333V24.64H189.187V26.08H187.333V31.318C187.333 32.236 187.639 32.65 188.647 32.65C188.863 32.65 189.025 32.65 189.313 32.614V33.982C188.971 34.072 188.575 34.126 188.143 34.126ZM194.151 34.18C191.901 34.18 190.299 33.244 190.245 31.21H191.883C192.027 32.362 193.017 32.776 194.169 32.776C195.321 32.776 196.221 32.362 196.221 31.354C196.221 30.598 195.699 30.292 194.817 30.094L193.071 29.698C191.307 29.284 190.515 28.384 190.515 27.124C190.515 25.414 191.973 24.46 194.151 24.46C196.383 24.46 197.733 25.468 197.823 27.394H196.293C196.131 26.242 195.339 25.864 194.169 25.864C192.945 25.864 192.279 26.278 192.279 27.088C192.279 27.736 192.693 28.132 193.665 28.348L195.429 28.744C196.941 29.104 198.075 29.716 198.075 31.318C198.075 33.388 196.203 34.18 194.151 34.18ZM206.387 34.18C204.641 34.18 203.255 33.406 203.255 31.552C203.255 29.752 204.569 29.014 206.243 28.816L208.565 28.546C209.429 28.438 209.717 28.276 209.717 27.988V27.736C209.717 26.242 208.943 25.846 207.629 25.846C206.279 25.846 205.523 26.242 205.523 27.43V27.646H203.777V27.268C203.777 25.396 205.091 24.46 207.665 24.46C210.311 24.46 211.535 25.45 211.535 27.718V34H209.825V32.488H209.753C209.573 32.848 208.691 34.18 206.387 34.18ZM205.073 31.462C205.073 32.344 205.703 32.758 206.837 32.758C208.817 32.758 209.717 31.534 209.717 30.526V29.5C209.591 29.698 209.357 29.824 208.439 29.932L206.675 30.166C205.505 30.31 205.073 30.724 205.073 31.462ZM214.998 30.058C214.998 31.732 215.718 32.65 217.194 32.65C218.67 32.65 219.696 31.732 219.696 30.058V24.64H221.514V34H219.696V32.128H219.642C219.48 32.83 218.58 34.18 216.492 34.18C214.656 34.18 213.18 33.118 213.18 30.472V24.64H214.998V30.058ZM228.348 23.596C228.348 21.76 229.446 21.112 230.994 21.112H232.128V22.534H231.444C230.508 22.534 230.166 22.93 230.166 23.848V24.64H232.074V26.062H230.166V34H228.348V26.062H227.052V24.64H228.348V23.596ZM233.412 34V24.64H235.23V34H233.412ZM233.232 21.94C233.232 21.346 233.736 20.86 234.312 20.86C234.888 20.86 235.392 21.346 235.392 21.94C235.392 22.552 234.888 23.02 234.312 23.02C233.736 23.02 233.232 22.552 233.232 21.94ZM237.244 34V21.4H239.062V34H237.244ZM248.951 34.18C246.863 34.18 244.775 32.704 244.775 29.32C244.775 25.918 246.863 24.46 248.951 24.46C250.337 24.46 251.525 25.09 252.083 26.116V21.4H253.901V34H252.083V32.524C251.525 33.55 250.337 34.18 248.951 34.18ZM246.503 29.32C246.503 31.606 247.871 32.65 249.329 32.65C250.769 32.65 252.173 31.606 252.173 29.32C252.173 27.034 250.769 25.99 249.329 25.99C247.871 25.99 246.503 27.034 246.503 29.32ZM257.73 30.058C257.73 31.732 258.45 32.65 259.926 32.65C261.402 32.65 262.428 31.732 262.428 30.058V24.64H264.246V34H262.428V32.128H262.374C262.212 32.83 261.312 34.18 259.224 34.18C257.388 34.18 255.912 33.118 255.912 30.472V24.64H257.73V30.058ZM273.942 34.126C272.376 34.126 271.314 33.46 271.314 31.624V26.08H269.784V24.64H271.314V22.282H273.132V24.64H274.986V26.08H273.132V31.318C273.132 32.236 273.438 32.65 274.446 32.65C274.662 32.65 274.824 32.65 275.112 32.614V33.982C274.77 34.072 274.374 34.126 273.942 34.126ZM280.582 34.18C278.062 34.18 276.046 32.704 276.046 29.338C276.046 25.9 278.098 24.46 280.51 24.46C282.922 24.46 284.776 25.918 284.776 29.194C284.776 29.518 284.758 29.698 284.722 29.896H277.792C277.936 31.858 278.926 32.758 280.6 32.758C281.752 32.758 282.634 32.344 283.03 31.246H284.65C284.092 33.334 282.49 34.18 280.582 34.18ZM277.81 28.528H283.048C283.012 26.89 282.094 25.882 280.492 25.882C278.998 25.882 277.972 26.746 277.81 28.528ZM298.472 28.582C298.472 26.908 297.824 25.99 296.456 25.99C295.142 25.99 294.224 26.908 294.224 28.582V34H292.406V28.582C292.406 26.908 291.74 25.99 290.39 25.99C289.076 25.99 288.158 26.908 288.158 28.582V34H286.34V24.64H288.158V26.512H288.212C288.356 25.81 289.256 24.46 291.11 24.46C292.424 24.46 293.558 25.09 294.008 26.584C294.224 25.828 295.142 24.46 297.104 24.46C298.922 24.46 300.29 25.522 300.29 28.168V34H298.472V28.582ZM302.301 37.42V24.64H304.119V26.116C304.677 25.09 305.865 24.46 307.251 24.46C309.339 24.46 311.427 25.918 311.427 29.32C311.427 32.704 309.339 34.18 307.251 34.18C305.865 34.18 304.677 33.55 304.119 32.524V37.42H302.301ZM304.029 29.32C304.029 31.606 305.433 32.65 306.873 32.65C308.331 32.65 309.699 31.606 309.699 29.32C309.699 27.034 308.331 25.99 306.873 25.99C305.433 25.99 304.029 27.034 304.029 29.32ZM316.354 34.18C314.104 34.18 312.502 33.244 312.448 31.21H314.086C314.23 32.362 315.22 32.776 316.372 32.776C317.524 32.776 318.424 32.362 318.424 31.354C318.424 30.598 317.902 30.292 317.02 30.094L315.274 29.698C313.51 29.284 312.718 28.384 312.718 27.124C312.718 25.414 314.176 24.46 316.354 24.46C318.586 24.46 319.936 25.468 320.026 27.394H318.496C318.334 26.242 317.542 25.864 316.372 25.864C315.148 25.864 314.482 26.278 314.482 27.088C314.482 27.736 314.896 28.132 315.868 28.348L317.632 28.744C319.144 29.104 320.278 29.716 320.278 31.318C320.278 33.388 318.406 34.18 316.354 34.18Z" fill="#242424"/>
<path d="M335 19.875C333.393 19.875 331.822 20.3515 330.486 21.2443C329.15 22.1371 328.108 23.406 327.493 24.8907C326.879 26.3753 326.718 28.009 327.031 29.5851C327.345 31.1612 328.118 32.6089 329.255 33.7452C330.391 34.8815 331.839 35.6554 333.415 35.9689C334.991 36.2824 336.625 36.1215 338.109 35.5065C339.594 34.8916 340.863 33.8502 341.756 32.514C342.648 31.1779 343.125 29.607 343.125 28C343.123 25.8458 342.266 23.7805 340.743 22.2573C339.219 20.734 337.154 19.8773 335 19.875ZM335 33C334.815 33 334.633 32.945 334.479 32.842C334.325 32.739 334.205 32.5926 334.134 32.4213C334.063 32.25 334.044 32.0615 334.081 31.8796C334.117 31.6977 334.206 31.5307 334.337 31.3996C334.468 31.2685 334.635 31.1792 334.817 31.143C334.999 31.1068 335.187 31.1254 335.359 31.1964C335.53 31.2673 335.676 31.3875 335.78 31.5417C335.883 31.6958 335.938 31.8771 335.938 32.0625C335.938 32.3111 335.839 32.5496 335.663 32.7254C335.487 32.9012 335.249 33 335 33ZM335.625 29.1938V29.25C335.625 29.4158 335.559 29.5747 335.442 29.6919C335.325 29.8092 335.166 29.875 335 29.875C334.834 29.875 334.675 29.8092 334.558 29.6919C334.441 29.5747 334.375 29.4158 334.375 29.25V28.625C334.375 28.4592 334.441 28.3003 334.558 28.1831C334.675 28.0658 334.834 28 335 28C336.034 28 336.875 27.2969 336.875 26.4375C336.875 25.5781 336.034 24.875 335 24.875C333.966 24.875 333.125 25.5781 333.125 26.4375V26.75C333.125 26.9158 333.059 27.0747 332.942 27.1919C332.825 27.3092 332.666 27.375 332.5 27.375C332.334 27.375 332.175 27.3092 332.058 27.1919C331.941 27.0747 331.875 26.9158 331.875 26.75V26.4375C331.875 24.8867 333.277 23.625 335 23.625C336.723 23.625 338.125 24.8867 338.125 26.4375C338.125 27.7953 337.05 28.932 335.625 29.1938Z" fill="#242424"/>
<path d="M677.026 33.14C674.422 33.14 672.602 31.404 672.602 28.1C672.602 24.796 674.422 23.074 677.026 23.074C679.014 23.074 680.526 24.068 680.848 26.056H679.714C679.378 24.768 678.384 24.082 677.012 24.082C675.038 24.082 673.764 25.496 673.764 28.1C673.764 30.69 675.038 32.132 677.012 32.132C678.384 32.132 679.378 31.446 679.714 30.13H680.848C680.526 32.146 679.014 33.14 677.026 33.14ZM685.163 33.14C683.357 33.14 681.663 31.95 681.663 29.36C681.663 26.77 683.357 25.58 685.163 25.58C686.969 25.58 688.663 26.77 688.663 29.36C688.663 31.95 686.969 33.14 685.163 33.14ZM682.727 29.36C682.727 31.32 683.889 32.188 685.163 32.188C686.423 32.188 687.585 31.32 687.585 29.36C687.585 27.4 686.423 26.518 685.163 26.518C683.889 26.518 682.727 27.4 682.727 29.36ZM695.067 28.73C695.067 27.344 694.479 26.532 693.191 26.532C691.903 26.532 691.049 27.344 691.049 28.73V33H689.929V25.72H691.049V27.148H691.077C691.203 26.658 691.903 25.58 693.583 25.58C695.025 25.58 696.187 26.364 696.187 28.506V33H695.067V28.73ZM700.394 33.14C698.728 33.14 697.468 32.454 697.398 30.928H698.406C698.546 31.922 699.456 32.258 700.408 32.258C701.402 32.258 702.2 31.894 702.2 30.984C702.2 30.27 701.71 30.032 700.926 29.85L699.554 29.528C698.266 29.22 697.622 28.562 697.622 27.568C697.622 26.28 698.714 25.58 700.366 25.58C702.004 25.58 703.082 26.28 703.166 27.736H702.214C702.06 26.784 701.374 26.462 700.366 26.462C699.302 26.462 698.714 26.812 698.714 27.568C698.714 28.128 699.05 28.478 699.932 28.674L701.29 28.996C702.494 29.276 703.348 29.738 703.348 30.97C703.348 32.566 701.892 33.14 700.394 33.14ZM705.664 29.99C705.664 31.376 706.252 32.188 707.54 32.188C708.828 32.188 709.682 31.376 709.682 29.99V25.72H710.802V33H709.682V31.572H709.654C709.528 32.062 708.828 33.14 707.148 33.14C705.706 33.14 704.544 32.356 704.544 30.214V25.72H705.664V29.99ZM712.433 33V23.2H713.553V33H712.433ZM717.715 33.098C716.623 33.098 715.853 32.636 715.853 31.292V26.63H714.677V25.72H715.853V23.9H716.973V25.72H718.415V26.63H716.973V31.082C716.973 31.866 717.239 32.174 718.023 32.174C718.205 32.174 718.331 32.174 718.527 32.146V33.014C718.275 33.07 718.009 33.098 717.715 33.098ZM722.76 33.14C720.758 33.14 719.302 31.936 719.302 29.374C719.302 26.728 720.842 25.58 722.704 25.58C724.58 25.58 725.952 26.756 725.952 29.192C725.952 29.43 725.938 29.57 725.91 29.71H720.38C720.464 31.418 721.304 32.244 722.774 32.244C723.67 32.244 724.482 31.95 724.832 30.956H725.854C725.378 32.566 724.146 33.14 722.76 33.14ZM720.38 28.856H724.874C724.86 27.33 724.034 26.462 722.69 26.462C721.416 26.462 720.492 27.232 720.38 28.856ZM728.332 29.164V33H727.212V25.72H728.332V27.344H728.36C728.556 26.588 729.242 25.664 730.656 25.664C730.838 25.664 731.034 25.678 731.202 25.734V26.686C731.02 26.658 730.852 26.644 730.67 26.644C729.2 26.644 728.332 27.61 728.332 29.164ZM735.416 33V23.2H736.536V33H735.416ZM741.258 33.14C739.256 33.14 737.8 31.936 737.8 29.374C737.8 26.728 739.34 25.58 741.202 25.58C743.078 25.58 744.45 26.756 744.45 29.192C744.45 29.43 744.436 29.57 744.408 29.71H738.878C738.962 31.418 739.802 32.244 741.272 32.244C742.168 32.244 742.98 31.95 743.33 30.956H744.352C743.876 32.566 742.644 33.14 741.258 33.14ZM738.878 28.856H743.372C743.358 27.33 742.532 26.462 741.188 26.462C739.914 26.462 738.99 27.232 738.878 28.856ZM750.057 29.164V33H748.937V25.72H750.057V27.344H750.085C750.281 26.588 750.967 25.664 752.381 25.664C752.563 25.664 752.759 25.678 752.927 25.734V26.686C752.745 26.658 752.577 26.644 752.395 26.644C750.925 26.644 750.057 27.61 750.057 29.164ZM755.739 33.14C754.353 33.14 753.345 32.51 753.345 31.138C753.345 29.85 754.227 29.22 755.641 29.052L757.503 28.842C758.259 28.758 758.483 28.604 758.483 28.366V28.072C758.483 26.84 757.867 26.448 756.663 26.448C755.459 26.448 754.843 26.84 754.843 27.806V27.974H753.765V27.708C753.765 26.252 754.801 25.58 756.705 25.58C758.679 25.58 759.603 26.322 759.603 28.072V33H758.553V31.74H758.497C758.329 32.104 757.531 33.14 755.739 33.14ZM754.465 31.082C754.465 31.922 755.095 32.244 756.005 32.244C757.699 32.244 758.483 31.124 758.483 30.396V29.346C758.427 29.5 758.189 29.626 757.433 29.724L755.907 29.906C754.829 30.032 754.465 30.438 754.465 31.082ZM761.296 35.66V25.72H762.416V26.924C762.92 26.042 763.914 25.58 764.992 25.58C766.672 25.58 768.268 26.728 768.268 29.36C768.268 31.978 766.672 33.14 764.992 33.14C763.914 33.14 762.92 32.664 762.416 31.782V35.66H761.296ZM762.36 29.36C762.36 31.292 763.55 32.188 764.782 32.188C766.028 32.188 767.204 31.292 767.204 29.36C767.204 27.414 766.028 26.518 764.782 26.518C763.55 26.518 762.36 27.414 762.36 29.36ZM769.527 35.66V25.72H770.647V26.924C771.151 26.042 772.145 25.58 773.223 25.58C774.903 25.58 776.499 26.728 776.499 29.36C776.499 31.978 774.903 33.14 773.223 33.14C772.145 33.14 771.151 32.664 770.647 31.782V35.66H769.527ZM770.591 29.36C770.591 31.292 771.781 32.188 773.013 32.188C774.259 32.188 775.435 31.292 775.435 29.36C775.435 27.414 774.259 26.518 773.013 26.518C771.781 26.518 770.591 27.414 770.591 29.36ZM780.976 33.14C779.17 33.14 777.476 31.95 777.476 29.36C777.476 26.77 779.17 25.58 780.976 25.58C782.782 25.58 784.476 26.77 784.476 29.36C784.476 31.95 782.782 33.14 780.976 33.14ZM778.54 29.36C778.54 31.32 779.702 32.188 780.976 32.188C782.236 32.188 783.398 31.32 783.398 29.36C783.398 27.4 782.236 26.518 780.976 26.518C779.702 26.518 778.54 27.4 778.54 29.36ZM786.862 29.164V33H785.742V25.72H786.862V27.344H786.89C787.086 26.588 787.772 25.664 789.186 25.664C789.368 25.664 789.564 25.678 789.732 25.734V26.686C789.55 26.658 789.382 26.644 789.2 26.644C787.73 26.644 786.862 27.61 786.862 29.164ZM793.608 33.098C792.516 33.098 791.746 32.636 791.746 31.292V26.63H790.57V25.72H791.746V23.9H792.866V25.72H794.308V26.63H792.866V31.082C792.866 31.866 793.132 32.174 793.916 32.174C794.098 32.174 794.224 32.174 794.42 32.146V33.014C794.168 33.07 793.902 33.098 793.608 33.098Z" fill="#3772FF"/>
<rect x="16" y="64" width="407" height="36" rx="8" fill="#E8E8E8"/>
<path d="M39.6666 87.9997C43.1644 87.9997 45.9999 85.1641 45.9999 81.6663C45.9999 78.1685 43.1644 75.333 39.6666 75.333C36.1688 75.333 33.3333 78.1685 33.3333 81.6663C33.3333 85.1641 36.1688 87.9997 39.6666 87.9997Z" stroke="#585757" stroke-width="1.5" stroke-linecap="round" stroke-linejoin="round"/>
<path d="M46.6666 88.6663L45.3333 87.333" stroke="#585757" stroke-width="1.5" stroke-linecap="round" stroke-linejoin="round"/>
<path d="M70.748 87L68.522 83.22H68.382H65.96V87H64.812V77.2H68.382C70.678 77.2 71.84 78.348 71.84 80.224C71.84 81.708 71.084 82.744 69.6 83.094L71.91 87H70.748ZM65.96 82.198H68.34C69.88 82.198 70.664 81.498 70.664 80.224C70.664 78.922 69.88 78.222 68.34 78.222H65.96V82.198ZM76.2188 87.14C74.2168 87.14 72.7608 85.936 72.7608 83.374C72.7608 80.728 74.3008 79.58 76.1628 79.58C78.0388 79.58 79.4108 80.756 79.4108 83.192C79.4108 83.43 79.3968 83.57 79.3688 83.71H73.8388C73.9228 85.418 74.7628 86.244 76.2328 86.244C77.1288 86.244 77.9408 85.95 78.2908 84.956H79.3128C78.8368 86.566 77.6048 87.14 76.2188 87.14ZM73.8388 82.856H78.3328C78.3188 81.33 77.4928 80.462 76.1488 80.462C74.8748 80.462 73.9508 81.232 73.8388 82.856ZM83.9037 87.14C82.0277 87.14 80.3897 85.95 80.3897 83.374C80.3897 80.784 82.0277 79.58 83.9037 79.58C85.2057 79.58 86.7317 80.154 86.9977 82.198H85.9757C85.7657 80.98 84.8417 80.532 83.8897 80.532C82.4757 80.532 81.4537 81.526 81.4537 83.374C81.4537 85.222 82.4757 86.174 83.8897 86.174C84.8557 86.174 85.7657 85.74 85.9757 84.48H86.9977C86.7457 86.552 85.2057 87.14 83.9037 87.14ZM88.2319 87V77.2H89.3519V81.148H89.3799C89.5059 80.658 90.2059 79.58 91.8859 79.58C93.3279 79.58 94.4899 80.364 94.4899 82.506V87H93.3699V82.73C93.3699 81.344 92.7819 80.532 91.4939 80.532C90.2059 80.532 89.3519 81.344 89.3519 82.73V87H88.2319ZM99.2286 87.14C97.2266 87.14 95.7706 85.936 95.7706 83.374C95.7706 80.728 97.3106 79.58 99.1726 79.58C101.049 79.58 102.421 80.756 102.421 83.192C102.421 83.43 102.407 83.57 102.379 83.71H96.8486C96.9326 85.418 97.7726 86.244 99.2426 86.244C100.139 86.244 100.951 85.95 101.301 84.956H102.323C101.847 86.566 100.615 87.14 99.2286 87.14ZM96.8486 82.856H101.343C101.329 81.33 100.503 80.462 99.1586 80.462C97.8846 80.462 96.9606 81.232 96.8486 82.856ZM104.801 83.164V87H103.681V79.72H104.801V81.344H104.829C105.025 80.588 105.711 79.664 107.125 79.664C107.307 79.664 107.503 79.678 107.671 79.734V80.686C107.489 80.658 107.321 80.644 107.139 80.644C105.669 80.644 104.801 81.61 104.801 83.164ZM111.753 87.14C109.877 87.14 108.239 85.95 108.239 83.374C108.239 80.784 109.877 79.58 111.753 79.58C113.055 79.58 114.581 80.154 114.847 82.198H113.825C113.615 80.98 112.691 80.532 111.739 80.532C110.325 80.532 109.303 81.526 109.303 83.374C109.303 85.222 110.325 86.174 111.739 86.174C112.705 86.174 113.615 85.74 113.825 84.48H114.847C114.595 86.552 113.055 87.14 111.753 87.14ZM116.082 87V77.2H117.202V81.148H117.23C117.356 80.658 118.056 79.58 119.736 79.58C121.178 79.58 122.34 80.364 122.34 82.506V87H121.22V82.73C121.22 81.344 120.632 80.532 119.344 80.532C118.056 80.532 117.202 81.344 117.202 82.73V87H116.082ZM127.078 87.14C125.076 87.14 123.62 85.936 123.62 83.374C123.62 80.728 125.16 79.58 127.022 79.58C128.898 79.58 130.27 80.756 130.27 83.192C130.27 83.43 130.256 83.57 130.228 83.71H124.698C124.782 85.418 125.622 86.244 127.092 86.244C127.988 86.244 128.8 85.95 129.15 84.956H130.172C129.696 86.566 128.464 87.14 127.078 87.14ZM124.698 82.856H129.192C129.178 81.33 128.352 80.462 127.008 80.462C125.734 80.462 124.81 81.232 124.698 82.856ZM137.669 87.14C135.989 87.14 134.393 85.978 134.393 83.36C134.393 80.728 135.989 79.58 137.669 79.58C138.747 79.58 139.741 80.042 140.245 80.924V77.2H141.365V87H140.245V85.782C139.741 86.664 138.747 87.14 137.669 87.14ZM135.457 83.36C135.457 85.292 136.633 86.188 137.879 86.188C139.111 86.188 140.301 85.292 140.301 83.36C140.301 81.414 139.111 80.518 137.879 80.518C136.633 80.518 135.457 81.414 135.457 83.36ZM144.108 83.99C144.108 85.376 144.696 86.188 145.984 86.188C147.272 86.188 148.126 85.376 148.126 83.99V79.72H149.246V87H148.126V85.572H148.098C147.972 86.062 147.272 87.14 145.592 87.14C144.15 87.14 142.988 86.356 142.988 84.214V79.72H144.108V83.99ZM154.103 89.66V79.72H155.223V80.924C155.727 80.042 156.721 79.58 157.799 79.58C159.479 79.58 161.075 80.728 161.075 83.36C161.075 85.978 159.479 87.14 157.799 87.14C156.721 87.14 155.727 86.664 155.223 85.782V89.66H154.103ZM155.167 83.36C155.167 85.292 156.357 86.188 157.589 86.188C158.835 86.188 160.011 85.292 160.011 83.36C160.011 81.414 158.835 80.518 157.589 80.518C156.357 80.518 155.167 81.414 155.167 83.36ZM163.453 83.164V87H162.333V79.72H163.453V81.344H163.481C163.677 80.588 164.363 79.664 165.777 79.664C165.959 79.664 166.155 79.678 166.323 79.734V80.686C166.141 80.658 165.973 80.644 165.791 80.644C164.321 80.644 163.453 81.61 163.453 83.164ZM170.392 87.14C168.586 87.14 166.892 85.95 166.892 83.36C166.892 80.77 168.586 79.58 170.392 79.58C172.198 79.58 173.892 80.77 173.892 83.36C173.892 85.95 172.198 87.14 170.392 87.14ZM167.956 83.36C167.956 85.32 169.118 86.188 170.392 86.188C171.652 86.188 172.814 85.32 172.814 83.36C172.814 81.4 171.652 80.518 170.392 80.518C169.118 80.518 167.956 81.4 167.956 83.36ZM178.138 87.14C176.458 87.14 174.862 85.978 174.862 83.36C174.862 80.728 176.458 79.58 178.138 79.58C179.216 79.58 180.21 80.042 180.714 80.924V77.2H181.834V87H180.714V85.782C180.21 86.664 179.216 87.14 178.138 87.14ZM175.926 83.36C175.926 85.292 177.102 86.188 178.348 86.188C179.58 86.188 180.77 85.292 180.77 83.36C180.77 81.414 179.58 80.518 178.348 80.518C177.102 80.518 175.926 81.414 175.926 83.36ZM184.577 83.99C184.577 85.376 185.165 86.188 186.453 86.188C187.741 86.188 188.595 85.376 188.595 83.99V79.72H189.715V87H188.595V85.572H188.567C188.441 86.062 187.741 87.14 186.061 87.14C184.619 87.14 183.457 86.356 183.457 84.214V79.72H184.577V83.99ZM191.345 87V79.72H192.465V87H191.345ZM191.191 77.564C191.191 77.172 191.527 76.864 191.905 76.864C192.283 76.864 192.605 77.172 192.605 77.564C192.605 77.956 192.283 78.278 191.905 78.278C191.527 78.278 191.191 77.956 191.191 77.564ZM196.628 87.098C195.536 87.098 194.766 86.636 194.766 85.292V80.63H193.59V79.72H194.766V77.9H195.886V79.72H197.328V80.63H195.886V85.082C195.886 85.866 196.152 86.174 196.936 86.174C197.118 86.174 197.244 86.174 197.44 86.146V87.014C197.188 87.07 196.922 87.098 196.628 87.098ZM201.208 87.14C199.542 87.14 198.282 86.454 198.212 84.928H199.22C199.36 85.922 200.27 86.258 201.222 86.258C202.216 86.258 203.014 85.894 203.014 84.984C203.014 84.27 202.524 84.032 201.74 83.85L200.368 83.528C199.08 83.22 198.436 82.562 198.436 81.568C198.436 80.28 199.528 79.58 201.18 79.58C202.818 79.58 203.896 80.28 203.98 81.736H203.028C202.874 80.784 202.188 80.462 201.18 80.462C200.116 80.462 199.528 80.812 199.528 81.568C199.528 82.128 199.864 82.478 200.746 82.674L202.104 82.996C203.308 83.276 204.162 83.738 204.162 84.97C204.162 86.566 202.706 87.14 201.208 87.14Z" fill="#5E5E5E"/>
<path d="M16.294 125L19.976 115.2H21.796L25.478 125H23.952L23.126 122.746H18.646L17.82 125H16.294ZM19.052 121.64H22.72L20.928 116.726H20.844L19.052 121.64ZM27.5496 121.934C27.5496 123.236 28.1096 123.95 29.2576 123.95C30.4056 123.95 31.2036 123.236 31.2036 121.934V117.72H32.6176V125H31.2036V123.544H31.1616C31.0356 124.09 30.3356 125.14 28.7116 125.14C27.2836 125.14 26.1356 124.314 26.1356 122.256V117.72H27.5496V121.934ZM37.3943 125.14C35.5603 125.14 33.8383 124.006 33.8383 121.374C33.8383 118.742 35.5603 117.58 37.3943 117.58C38.6963 117.58 40.3063 118.14 40.5723 120.31H39.2843C39.0883 119.19 38.2903 118.784 37.3803 118.784C36.0503 118.784 35.1683 119.736 35.1683 121.374C35.1683 123.012 36.0503 123.936 37.3803 123.936C38.3043 123.936 39.0883 123.516 39.2843 122.382H40.5723C40.3343 124.58 38.6963 125.14 37.3943 125.14ZM43.1902 121.934C43.1902 123.236 43.7502 123.95 44.8982 123.95C46.0462 123.95 46.8442 123.236 46.8442 121.934V117.72H48.2582V125H46.8442V123.544H46.8022C46.6762 124.09 45.9762 125.14 44.3522 125.14C42.9242 125.14 41.7762 124.314 41.7762 122.256V117.72H43.1902V121.934ZM54.8969 120.786C54.8969 119.484 54.3369 118.77 53.1889 118.77C52.0409 118.77 51.2429 119.484 51.2429 120.786V125H49.8289V117.72H51.2429V119.176H51.2849C51.4109 118.63 52.1109 117.58 53.7349 117.58C55.1629 117.58 56.3109 118.406 56.3109 120.464V125H54.8969V120.786ZM61.1082 127.66V117.72H62.5222V118.868C62.9562 118.07 63.8802 117.58 64.9582 117.58C66.5822 117.58 68.2062 118.714 68.2062 121.36C68.2062 123.992 66.5822 125.14 64.9582 125.14C63.8802 125.14 62.9562 124.65 62.5222 123.852V127.66H61.1082ZM62.4522 121.36C62.4522 123.138 63.5442 123.95 64.6642 123.95C65.7982 123.95 66.8622 123.138 66.8622 121.36C66.8622 119.582 65.7982 118.77 64.6642 118.77C63.5442 118.77 62.4522 119.582 62.4522 121.36ZM70.8347 121.36V125H69.4207V117.72H70.8347V119.4H70.8627C71.0867 118.546 71.7727 117.664 73.1027 117.664C73.2847 117.664 73.4807 117.678 73.6487 117.734V118.924C73.4667 118.896 73.2987 118.882 73.1167 118.882C71.7587 118.882 70.8347 119.736 70.8347 121.36ZM77.7123 125.14C75.9063 125.14 74.1703 123.964 74.1703 121.36C74.1703 118.756 75.9063 117.58 77.7123 117.58C79.5323 117.58 81.2683 118.756 81.2683 121.36C81.2683 123.964 79.5323 125.14 77.7123 125.14ZM75.5143 121.36C75.5143 123.152 76.5363 123.95 77.7123 123.95C78.8883 123.95 79.9243 123.152 79.9243 121.36C79.9243 119.568 78.8883 118.77 77.7123 118.77C76.5363 118.77 75.5143 119.568 75.5143 121.36ZM85.4574 125.14C83.8334 125.14 82.2094 123.992 82.2094 121.36C82.2094 118.714 83.8334 117.58 85.4574 117.58C86.5354 117.58 87.4594 118.07 87.8934 118.868V115.2H89.3074V125H87.8934V123.852C87.4594 124.65 86.5354 125.14 85.4574 125.14ZM83.5534 121.36C83.5534 123.138 84.6174 123.95 85.7514 123.95C86.8714 123.95 87.9634 123.138 87.9634 121.36C87.9634 119.582 86.8714 118.77 85.7514 118.77C84.6174 118.77 83.5534 119.582 83.5534 121.36ZM92.2859 121.934C92.2859 123.236 92.8459 123.95 93.9939 123.95C95.1419 123.95 95.9399 123.236 95.9399 121.934V117.72H97.3539V125H95.9399V123.544H95.8979C95.7719 124.09 95.0719 125.14 93.4479 125.14C92.0199 125.14 90.8719 124.314 90.8719 122.256V117.72H92.2859V121.934ZM98.9246 125V117.72H100.339V125H98.9246ZM98.7846 115.62C98.7846 115.158 99.1766 114.78 99.6246 114.78C100.073 114.78 100.465 115.158 100.465 115.62C100.465 116.096 100.073 116.46 99.6246 116.46C99.1766 116.46 98.7846 116.096 98.7846 115.62ZM104.649 125.098C103.431 125.098 102.605 124.58 102.605 123.152V118.84H101.415V117.72H102.605V115.886H104.019V117.72H105.461V118.84H104.019V122.914C104.019 123.628 104.257 123.95 105.041 123.95C105.209 123.95 105.335 123.95 105.559 123.922V124.986C105.293 125.056 104.985 125.098 104.649 125.098ZM112.548 125.14C110.798 125.14 109.552 124.412 109.51 122.83H110.784C110.896 123.726 111.666 124.048 112.562 124.048C113.458 124.048 114.158 123.726 114.158 122.942C114.158 122.354 113.752 122.116 113.066 121.962L111.708 121.654C110.336 121.332 109.72 120.632 109.72 119.652C109.72 118.322 110.854 117.58 112.548 117.58C114.284 117.58 115.334 118.364 115.404 119.862H114.214C114.088 118.966 113.472 118.672 112.562 118.672C111.61 118.672 111.092 118.994 111.092 119.624C111.092 120.128 111.414 120.436 112.17 120.604L113.542 120.912C114.718 121.192 115.6 121.668 115.6 122.914C115.6 124.524 114.144 125.14 112.548 125.14ZM119.931 125.14C117.971 125.14 116.403 123.992 116.403 121.374C116.403 118.7 117.999 117.58 119.875 117.58C121.751 117.58 123.193 118.714 123.193 121.262C123.193 121.514 123.179 121.654 123.151 121.808H117.761C117.873 123.334 118.643 124.034 119.945 124.034C120.841 124.034 121.527 123.712 121.835 122.858H123.095C122.661 124.482 121.415 125.14 119.931 125.14ZM117.775 120.744H121.849C121.821 119.47 121.107 118.686 119.861 118.686C118.699 118.686 117.901 119.358 117.775 120.744ZM124.409 125V115.2H125.823V125H124.409ZM130.567 125.14C128.607 125.14 127.039 123.992 127.039 121.374C127.039 118.7 128.635 117.58 130.511 117.58C132.387 117.58 133.829 118.714 133.829 121.262C133.829 121.514 133.815 121.654 133.787 121.808H128.397C128.509 123.334 129.279 124.034 130.581 124.034C131.477 124.034 132.163 123.712 132.471 122.858H133.731C133.297 124.482 132.051 125.14 130.567 125.14ZM128.411 120.744H132.485C132.457 119.47 131.743 118.686 130.497 118.686C129.335 118.686 128.537 119.358 128.411 120.744ZM138.32 125.14C136.486 125.14 134.764 124.006 134.764 121.374C134.764 118.742 136.486 117.58 138.32 117.58C139.622 117.58 141.232 118.14 141.498 120.31H140.21C140.014 119.19 139.216 118.784 138.306 118.784C136.976 118.784 136.094 119.736 136.094 121.374C136.094 123.012 136.976 123.936 138.306 123.936C139.23 123.936 140.014 123.516 140.21 122.382H141.498C141.26 124.58 139.622 125.14 138.32 125.14ZM145.446 125.098C144.228 125.098 143.402 124.58 143.402 123.152V118.84H142.212V117.72H143.402V115.886H144.816V117.72H146.258V118.84H144.816V122.914C144.816 123.628 145.054 123.95 145.838 123.95C146.006 123.95 146.132 123.95 146.356 123.922V124.986C146.09 125.056 145.782 125.098 145.446 125.098ZM147.501 125V117.72H148.915V125H147.501ZM147.361 115.62C147.361 115.158 147.753 114.78 148.201 114.78C148.649 114.78 149.041 115.158 149.041 115.62C149.041 116.096 148.649 116.46 148.201 116.46C147.753 116.46 147.361 116.096 147.361 115.62ZM153.673 125.14C151.867 125.14 150.131 123.964 150.131 121.36C150.131 118.756 151.867 117.58 153.673 117.58C155.493 117.58 157.229 118.756 157.229 121.36C157.229 123.964 155.493 125.14 153.673 125.14ZM151.475 121.36C151.475 123.152 152.497 123.95 153.673 123.95C154.849 123.95 155.885 123.152 155.885 121.36C155.885 119.568 154.849 118.77 153.673 118.77C152.497 118.77 151.475 119.568 151.475 121.36ZM163.52 120.786C163.52 119.484 162.96 118.77 161.812 118.77C160.664 118.77 159.866 119.484 159.866 120.786V125H158.452V117.72H159.866V119.176H159.908C160.034 118.63 160.734 117.58 162.358 117.58C163.786 117.58 164.934 118.406 164.934 120.464V125H163.52V120.786ZM169.683 125.14C167.723 125.14 166.155 123.992 166.155 121.374C166.155 118.7 167.751 117.58 169.627 117.58C171.503 117.58 172.945 118.714 172.945 121.262C172.945 121.514 172.931 121.654 172.903 121.808H167.513C167.625 123.334 168.395 124.034 169.697 124.034C170.593 124.034 171.279 123.712 171.587 122.858H172.847C172.413 124.482 171.167 125.14 169.683 125.14ZM167.527 120.744H171.601C171.573 119.47 170.859 118.686 169.613 118.686C168.451 118.686 167.653 119.358 167.527 120.744ZM175.575 121.36V125H174.161V117.72H175.575V119.4H175.603C175.827 118.546 176.513 117.664 177.843 117.664C178.025 117.664 178.221 117.678 178.389 117.734V118.924C178.207 118.896 178.039 118.882 177.857 118.882C176.499 118.882 175.575 119.736 175.575 121.36Z" fill="#969696"/>
<rect x="16" y="154" width="16" height="16" rx="4" fill="#D99125"/>
<path d="M42.812 167V157.2H46.48C48.51 157.2 49.392 158.18 49.392 159.552C49.392 160.574 48.902 161.316 47.964 161.624C49.252 161.946 50.022 162.8 50.022 164.172C50.022 165.81 48.902 167 46.522 167H42.812ZM43.96 166.006H46.452C48.048 166.006 48.804 165.236 48.804 164.116C48.804 162.982 48.048 162.24 46.452 162.24H43.96V166.006ZM43.96 161.246H46.382C47.6 161.246 48.202 160.658 48.202 159.692C48.202 158.726 47.6 158.194 46.382 158.194H43.96V161.246ZM53.3326 167.14C51.9466 167.14 50.9386 166.51 50.9386 165.138C50.9386 163.85 51.8206 163.22 53.2346 163.052L55.0966 162.842C55.8526 162.758 56.0766 162.604 56.0766 162.366V162.072C56.0766 160.84 55.4606 160.448 54.2566 160.448C53.0526 160.448 52.4366 160.84 52.4366 161.806V161.974H51.3586V161.708C51.3586 160.252 52.3946 159.58 54.2986 159.58C56.2726 159.58 57.1966 160.322 57.1966 162.072V167H56.1466V165.74H56.0906C55.9226 166.104 55.1246 167.14 53.3326 167.14ZM52.0586 165.082C52.0586 165.922 52.6886 166.244 53.5986 166.244C55.2926 166.244 56.0766 165.124 56.0766 164.396V163.346C56.0206 163.5 55.7826 163.626 55.0266 163.724L53.5006 163.906C52.4226 164.032 52.0586 164.438 52.0586 165.082ZM61.3978 167.14C59.7318 167.14 58.4718 166.454 58.4018 164.928H59.4098C59.5498 165.922 60.4598 166.258 61.4118 166.258C62.4058 166.258 63.2038 165.894 63.2038 164.984C63.2038 164.27 62.7138 164.032 61.9298 163.85L60.5578 163.528C59.2698 163.22 58.6258 162.562 58.6258 161.568C58.6258 160.28 59.7178 159.58 61.3698 159.58C63.0078 159.58 64.0858 160.28 64.1698 161.736H63.2178C63.0638 160.784 62.3778 160.462 61.3698 160.462C60.3058 160.462 59.7178 160.812 59.7178 161.568C59.7178 162.128 60.0538 162.478 60.9358 162.674L62.2938 162.996C63.4978 163.276 64.3518 163.738 64.3518 164.97C64.3518 166.566 62.8958 167.14 61.3978 167.14ZM68.0963 167.098C67.0043 167.098 66.2343 166.636 66.2343 165.292V160.63H65.0583V159.72H66.2343V157.9H67.3543V159.72H68.7963V160.63H67.3543V165.082C67.3543 165.866 67.6203 166.174 68.4043 166.174C68.5863 166.174 68.7123 166.174 68.9083 166.146V167.014C68.6563 167.07 68.3903 167.098 68.0963 167.098ZM73.1827 167.14C71.3767 167.14 69.6827 165.95 69.6827 163.36C69.6827 160.77 71.3767 159.58 73.1827 159.58C74.9887 159.58 76.6827 160.77 76.6827 163.36C76.6827 165.95 74.9887 167.14 73.1827 167.14ZM70.7467 163.36C70.7467 165.32 71.9087 166.188 73.1827 166.188C74.4427 166.188 75.6047 165.32 75.6047 163.36C75.6047 161.4 74.4427 160.518 73.1827 160.518C71.9087 160.518 70.7467 161.4 70.7467 163.36ZM80.5247 167.14C78.8587 167.14 77.5987 166.454 77.5287 164.928H78.5367C78.6767 165.922 79.5867 166.258 80.5387 166.258C81.5327 166.258 82.3307 165.894 82.3307 164.984C82.3307 164.27 81.8407 164.032 81.0567 163.85L79.6847 163.528C78.3967 163.22 77.7527 162.562 77.7527 161.568C77.7527 160.28 78.8447 159.58 80.4967 159.58C82.1347 159.58 83.2127 160.28 83.2967 161.736H82.3447C82.1907 160.784 81.5047 160.462 80.4967 160.462C79.4327 160.462 78.8447 160.812 78.8447 161.568C78.8447 162.128 79.1807 162.478 80.0627 162.674L81.4207 162.996C82.6247 163.276 83.4787 163.738 83.4787 164.97C83.4787 166.566 82.0227 167.14 80.5247 167.14Z" fill="#242424"/>
<rect x="92" y="154" width="16" height="16" rx="4" fill="#28666E"/>
<path d="M123.04 167.14C120.492 167.14 118.602 165.348 118.602 162.1C118.602 158.852 120.492 157.074 123.04 157.074C125.588 157.074 127.492 158.852 127.492 162.1C127.492 165.348 125.588 167.14 123.04 167.14ZM119.778 162.1C119.778 164.76 121.15 166.132 123.04 166.132C124.944 166.132 126.316 164.76 126.316 162.1C126.316 159.44 124.944 158.082 123.04 158.082C121.15 158.082 119.778 159.44 119.778 162.1ZM138.478 162.73C138.478 161.344 137.932 160.532 136.728 160.532C135.566 160.532 134.796 161.344 134.796 162.73V167H133.676V162.73C133.676 161.344 133.144 160.532 131.94 160.532C130.778 160.532 130.008 161.344 130.008 162.73V167H128.888V159.72H130.008V161.148H130.036C130.148 160.658 130.82 159.58 132.346 159.58C133.382 159.58 134.264 160.042 134.628 161.218C134.81 160.672 135.496 159.58 137.092 159.58C138.492 159.58 139.598 160.364 139.598 162.506V167H138.478V162.73ZM141.207 167V159.72H142.327V167H141.207ZM141.053 157.564C141.053 157.172 141.389 156.864 141.767 156.864C142.145 156.864 142.467 157.172 142.467 157.564C142.467 157.956 142.145 158.278 141.767 158.278C141.389 158.278 141.053 157.956 141.053 157.564ZM149.079 162.73C149.079 161.344 148.491 160.532 147.203 160.532C145.915 160.532 145.061 161.344 145.061 162.73V167H143.941V159.72H145.061V161.148H145.089C145.215 160.658 145.915 159.58 147.595 159.58C149.037 159.58 150.199 160.364 150.199 162.506V167H149.079V162.73ZM151.83 167V159.72H152.95V167H151.83ZM151.676 157.564C151.676 157.172 152.012 156.864 152.39 156.864C152.768 156.864 153.09 157.172 153.09 157.564C153.09 157.956 152.768 158.278 152.39 158.278C152.012 158.278 151.676 157.956 151.676 157.564ZM157.14 167.14C155.474 167.14 154.214 166.454 154.144 164.928H155.152C155.292 165.922 156.202 166.258 157.154 166.258C158.148 166.258 158.946 165.894 158.946 164.984C158.946 164.27 158.456 164.032 157.672 163.85L156.3 163.528C155.012 163.22 154.368 162.562 154.368 161.568C154.368 160.28 155.46 159.58 157.112 159.58C158.75 159.58 159.828 160.28 159.912 161.736H158.96C158.806 160.784 158.12 160.462 157.112 160.462C156.048 160.462 155.46 160.812 155.46 161.568C155.46 162.128 155.796 162.478 156.678 162.674L158.036 162.996C159.24 163.276 160.094 163.738 160.094 164.97C160.094 166.566 158.638 167.14 157.14 167.14ZM161.291 169.66V159.72H162.411V160.924C162.915 160.042 163.909 159.58 164.987 159.58C166.667 159.58 168.263 160.728 168.263 163.36C168.263 165.978 166.667 167.14 164.987 167.14C163.909 167.14 162.915 166.664 162.411 165.782V169.66H161.291ZM162.355 163.36C162.355 165.292 163.545 166.188 164.777 166.188C166.023 166.188 167.199 165.292 167.199 163.36C167.199 161.414 166.023 160.518 164.777 160.518C163.545 160.518 162.355 161.414 162.355 163.36ZM172.739 167.14C170.933 167.14 169.239 165.95 169.239 163.36C169.239 160.77 170.933 159.58 172.739 159.58C174.545 159.58 176.239 160.77 176.239 163.36C176.239 165.95 174.545 167.14 172.739 167.14ZM170.303 163.36C170.303 165.32 171.465 166.188 172.739 166.188C173.999 166.188 175.161 165.32 175.161 163.36C175.161 161.4 173.999 160.518 172.739 160.518C171.465 160.518 170.303 161.4 170.303 163.36ZM178.625 163.164V167H177.505V159.72H178.625V161.344H178.653C178.849 160.588 179.535 159.664 180.949 159.664C181.131 159.664 181.327 159.678 181.495 159.734V160.686C181.313 160.658 181.145 160.644 180.963 160.644C179.493 160.644 178.625 161.61 178.625 163.164ZM185.372 167.098C184.28 167.098 183.51 166.636 183.51 165.292V160.63H182.334V159.72H183.51V157.9H184.63V159.72H186.072V160.63H184.63V165.082C184.63 165.866 184.896 166.174 185.68 166.174C185.862 166.174 185.988 166.174 186.184 166.146V167.014C185.932 167.07 185.666 167.098 185.372 167.098Z" fill="#242424"/>
<rect x="195" y="154" width="16" height="16" rx="4" fill="#BD2D87"/>
<path d="M221.322 167L225.06 157.2H226.488L230.226 167H229.008L228.098 164.55H223.45L222.54 167H221.322ZM223.786 163.654H227.762L225.816 158.446H225.732L223.786 163.654ZM231.355 167V157.2H232.475V163.654L236.241 159.72H237.529L234.435 162.884L237.935 167H236.647L233.735 163.598L232.475 164.872V167H231.355ZM240.498 167L238.426 159.72H239.504L241.17 165.852H241.226L243.172 159.72H244.166L246.126 165.852H246.182L247.834 159.72H248.926L246.84 167H245.566L243.676 161.204L241.772 167H240.498ZM251.76 167.14C250.374 167.14 249.366 166.51 249.366 165.138C249.366 163.85 250.248 163.22 251.662 163.052L253.524 162.842C254.28 162.758 254.504 162.604 254.504 162.366V162.072C254.504 160.84 253.888 160.448 252.684 160.448C251.48 160.448 250.864 160.84 250.864 161.806V161.974H249.786V161.708C249.786 160.252 250.822 159.58 252.726 159.58C254.7 159.58 255.624 160.322 255.624 162.072V167H254.574V165.74H254.518C254.35 166.104 253.552 167.14 251.76 167.14ZM250.486 165.082C250.486 165.922 251.116 166.244 252.026 166.244C253.72 166.244 254.504 165.124 254.504 164.396V163.346C254.448 163.5 254.21 163.626 253.454 163.724L251.928 163.906C250.85 164.032 250.486 164.438 250.486 165.082Z" fill="#242424"/>
<path d="M20.4132 209L16.7312 199.2H18.2572L21.2812 207.474H21.3652L24.3892 199.2H25.9152L22.2332 209H20.4132ZM29.1339 209.14C27.1739 209.14 25.6059 207.992 25.6059 205.374C25.6059 202.7 27.2019 201.58 29.0779 201.58C30.9539 201.58 32.3959 202.714 32.3959 205.262C32.3959 205.514 32.3819 205.654 32.3539 205.808H26.9639C27.0759 207.334 27.8459 208.034 29.1479 208.034C30.0439 208.034 30.7299 207.712 31.0379 206.858H32.2979C31.8639 208.482 30.6179 209.14 29.1339 209.14ZM26.9779 204.744H31.0519C31.0239 203.47 30.3099 202.686 29.0639 202.686C27.9019 202.686 27.1039 203.358 26.9779 204.744ZM38.6801 204.786C38.6801 203.484 38.1201 202.77 36.9721 202.77C35.8241 202.77 35.0261 203.484 35.0261 204.786V209H33.6121V201.72H35.0261V203.176H35.0681C35.1941 202.63 35.8941 201.58 37.5181 201.58C38.9461 201.58 40.0941 202.406 40.0941 204.464V209H38.6801V204.786ZM44.2721 209.098C43.0541 209.098 42.2281 208.58 42.2281 207.152V202.84H41.0381V201.72H42.2281V199.886H43.6421V201.72H45.0841V202.84H43.6421V206.914C43.6421 207.628 43.8801 207.95 44.6641 207.95C44.8321 207.95 44.9581 207.95 45.1821 207.922V208.986C44.9161 209.056 44.6081 209.098 44.2721 209.098ZM49.4366 209.14C47.4766 209.14 45.9086 207.992 45.9086 205.374C45.9086 202.7 47.5046 201.58 49.3806 201.58C51.2566 201.58 52.6986 202.714 52.6986 205.262C52.6986 205.514 52.6846 205.654 52.6566 205.808H47.2666C47.3786 207.334 48.1486 208.034 49.4506 208.034C50.3466 208.034 51.0326 207.712 51.3406 206.858H52.6006C52.1666 208.482 50.9206 209.14 49.4366 209.14ZM47.2806 204.744H51.3546C51.3266 203.47 50.6126 202.686 49.3666 202.686C48.2046 202.686 47.4066 203.358 47.2806 204.744ZM56.5329 209.14C54.7829 209.14 53.5369 208.412 53.4949 206.83H54.7689C54.8809 207.726 55.6509 208.048 56.5469 208.048C57.4429 208.048 58.1429 207.726 58.1429 206.942C58.1429 206.354 57.7369 206.116 57.0509 205.962L55.6929 205.654C54.3209 205.332 53.7049 204.632 53.7049 203.652C53.7049 202.322 54.8389 201.58 56.5329 201.58C58.2689 201.58 59.3189 202.364 59.3889 203.862H58.1989C58.0729 202.966 57.4569 202.672 56.5469 202.672C55.5949 202.672 55.0769 202.994 55.0769 203.624C55.0769 204.128 55.3989 204.436 56.1549 204.604L57.5269 204.912C58.7029 205.192 59.5849 205.668 59.5849 206.914C59.5849 208.524 58.1289 209.14 56.5329 209.14ZM66.0497 209.14C64.6917 209.14 63.6137 208.538 63.6137 207.096C63.6137 205.696 64.6357 205.122 65.9377 204.968L67.7437 204.758C68.4157 204.674 68.6397 204.548 68.6397 204.324V204.128C68.6397 202.966 68.0377 202.658 67.0157 202.658C65.9657 202.658 65.3777 202.966 65.3777 203.89V204.058H64.0197V203.764C64.0197 202.308 65.0417 201.58 67.0437 201.58C69.1017 201.58 70.0537 202.35 70.0537 204.114V209H68.7237V207.824H68.6677C68.5277 208.104 67.8417 209.14 66.0497 209.14ZM65.0277 207.026C65.0277 207.712 65.5177 208.034 66.3997 208.034C67.9397 208.034 68.6397 207.082 68.6397 206.298V205.5C68.5417 205.654 68.3597 205.752 67.6457 205.836L66.2737 206.018C65.3637 206.13 65.0277 206.452 65.0277 207.026ZM72.7468 205.934C72.7468 207.236 73.3068 207.95 74.4548 207.95C75.6028 207.95 76.4008 207.236 76.4008 205.934V201.72H77.8148V209H76.4008V207.544H76.3588C76.2328 208.09 75.5328 209.14 73.9088 209.14C72.4808 209.14 71.3328 208.314 71.3328 206.256V201.72H72.7468V205.934ZM83.1301 200.908C83.1301 199.48 83.9841 198.976 85.1881 198.976H86.0701V200.082H85.5381C84.8101 200.082 84.5441 200.39 84.5441 201.104V201.72H86.0281V202.826H84.5441V209H83.1301V202.826H82.1221V201.72H83.1301V200.908ZM87.0692 209V201.72H88.4832V209H87.0692ZM86.9292 199.62C86.9292 199.158 87.3212 198.78 87.7692 198.78C88.2172 198.78 88.6092 199.158 88.6092 199.62C88.6092 200.096 88.2172 200.46 87.7692 200.46C87.3212 200.46 86.9292 200.096 86.9292 199.62ZM90.0496 209V199.2H91.4636V209H90.0496ZM99.1547 209.14C97.5307 209.14 95.9067 207.992 95.9067 205.36C95.9067 202.714 97.5307 201.58 99.1547 201.58C100.233 201.58 101.157 202.07 101.591 202.868V199.2H103.005V209H101.591V207.852C101.157 208.65 100.233 209.14 99.1547 209.14ZM97.2507 205.36C97.2507 207.138 98.3147 207.95 99.4487 207.95C100.569 207.95 101.661 207.138 101.661 205.36C101.661 203.582 100.569 202.77 99.4487 202.77C98.3147 202.77 97.2507 203.582 97.2507 205.36ZM105.983 205.934C105.983 207.236 106.543 207.95 107.691 207.95C108.839 207.95 109.637 207.236 109.637 205.934V201.72H111.051V209H109.637V207.544H109.595C109.469 208.09 108.769 209.14 107.145 209.14C105.717 209.14 104.569 208.314 104.569 206.256V201.72H105.983V205.934ZM118.592 209.098C117.374 209.098 116.548 208.58 116.548 207.152V202.84H115.358V201.72H116.548V199.886H117.962V201.72H119.404V202.84H117.962V206.914C117.962 207.628 118.2 207.95 118.984 207.95C119.152 207.95 119.278 207.95 119.502 207.922V208.986C119.236 209.056 118.928 209.098 118.592 209.098ZM123.757 209.14C121.797 209.14 120.229 207.992 120.229 205.374C120.229 202.7 121.825 201.58 123.701 201.58C125.577 201.58 127.019 202.714 127.019 205.262C127.019 205.514 127.005 205.654 126.977 205.808H121.587C121.699 207.334 122.469 208.034 123.771 208.034C124.667 208.034 125.353 207.712 125.661 206.858H126.921C126.487 208.482 125.241 209.14 123.757 209.14ZM121.601 204.744H125.675C125.647 203.47 124.933 202.686 123.687 202.686C122.525 202.686 121.727 203.358 121.601 204.744ZM137.671 204.786C137.671 203.484 137.167 202.77 136.103 202.77C135.081 202.77 134.367 203.484 134.367 204.786V209H132.953V204.786C132.953 203.484 132.435 202.77 131.385 202.77C130.363 202.77 129.649 203.484 129.649 204.786V209H128.235V201.72H129.649V203.176H129.691C129.803 202.63 130.503 201.58 131.945 201.58C132.967 201.58 133.849 202.07 134.199 203.232C134.367 202.644 135.081 201.58 136.607 201.58C138.021 201.58 139.085 202.406 139.085 204.464V209H137.671V204.786ZM140.649 211.66V201.72H142.063V202.868C142.497 202.07 143.421 201.58 144.499 201.58C146.123 201.58 147.747 202.714 147.747 205.36C147.747 207.992 146.123 209.14 144.499 209.14C143.421 209.14 142.497 208.65 142.063 207.852V211.66H140.649ZM141.993 205.36C141.993 207.138 143.085 207.95 144.205 207.95C145.339 207.95 146.403 207.138 146.403 205.36C146.403 203.582 145.339 202.77 144.205 202.77C143.085 202.77 141.993 203.582 141.993 205.36ZM151.58 209.14C149.83 209.14 148.584 208.412 148.542 206.83H149.816C149.928 207.726 150.698 208.048 151.594 208.048C152.49 208.048 153.19 207.726 153.19 206.942C153.19 206.354 152.784 206.116 152.098 205.962L150.74 205.654C149.368 205.332 148.752 204.632 148.752 203.652C148.752 202.322 149.886 201.58 151.58 201.58C153.316 201.58 154.366 202.364 154.436 203.862H153.246C153.12 202.966 152.504 202.672 151.594 202.672C150.642 202.672 150.124 202.994 150.124 203.624C150.124 204.128 150.446 204.436 151.202 204.604L152.574 204.912C153.75 205.192 154.632 205.668 154.632 206.914C154.632 208.524 153.176 209.14 151.58 209.14Z" fill="#585757"/>
<path d="M18.7878 235.16C18.4398 235.556 17.8398 235.808 17.1678 235.82V234.812C17.9958 234.74 18.5958 234.284 18.7878 233.6H19.9998V242H18.7878V235.16ZM24.6743 242.12C22.9223 242.12 21.3983 240.8 21.3983 237.8C21.3983 234.824 22.9223 233.492 24.6743 233.492C26.4383 233.492 27.9622 234.824 27.9622 237.8C27.9622 240.8 26.4383 242.12 24.6743 242.12ZM22.5503 237.8C22.5503 239.732 23.2703 241.088 24.6743 241.088C26.0783 241.088 26.7983 239.732 26.7983 237.8C26.7983 235.88 26.0783 234.524 24.6743 234.524C23.2703 234.524 22.5503 235.88 22.5503 237.8ZM32.2211 242.12C30.4691 242.12 28.9451 240.8 28.9451 237.8C28.9451 234.824 30.4691 233.492 32.2211 233.492C33.9851 233.492 35.5091 234.824 35.5091 237.8C35.5091 240.8 33.9851 242.12 32.2211 242.12ZM30.0971 237.8C30.0971 239.732 30.8171 241.088 32.2211 241.088C33.6251 241.088 34.3451 239.732 34.3451 237.8C34.3451 235.88 33.6251 234.524 32.2211 234.524C30.8171 234.524 30.0971 235.88 30.0971 237.8Z" fill="#585757"/>
<path d="M24.8195 274.25C25.0595 271.682 26.1635 269.234 27.7115 266.858H23.7155V265.85H28.8635V266.858C27.3155 269.234 26.1875 271.682 25.9715 274.25H24.8195ZM32.5788 274.37C30.6708 274.37 29.6028 273.218 29.6028 271.67H30.7068C30.7428 272.762 31.5588 273.374 32.5548 273.374C33.5268 273.374 34.4268 272.798 34.4268 271.418C34.4268 270.026 33.5268 269.462 32.5788 269.462C31.8828 269.462 31.2588 269.762 30.9228 270.338H29.7708L30.4548 265.85H34.8828V266.822H31.2948L30.8988 269.33C31.1388 269.006 31.7988 268.514 32.8668 268.514C34.4388 268.514 35.6268 269.594 35.6268 271.418C35.6268 273.278 34.4148 274.37 32.5788 274.37Z" fill="#585757"/>
<path d="M25.0319 306.62C23.1239 306.62 22.0559 305.468 22.0559 303.92H23.1599C23.1959 305.012 24.0119 305.624 25.0079 305.624C25.9799 305.624 26.8799 305.048 26.8799 303.668C26.8799 302.276 25.9799 301.712 25.0319 301.712C24.3359 301.712 23.7119 302.012 23.3759 302.588H22.2239L22.9079 298.1H27.3359V299.072H23.7479L23.3519 301.58C23.5919 301.256 24.2519 300.764 25.3199 300.764C26.8919 300.764 28.0799 301.844 28.0799 303.668C28.0799 305.528 26.8679 306.62 25.0319 306.62ZM32.2211 306.62C30.4691 306.62 28.9451 305.3 28.9451 302.3C28.9451 299.324 30.4691 297.992 32.2211 297.992C33.9851 297.992 35.5091 299.324 35.5091 302.3C35.5091 305.3 33.9851 306.62 32.2211 306.62ZM30.0971 302.3C30.0971 304.232 30.8171 305.588 32.2211 305.588C33.6251 305.588 34.3451 304.232 34.3451 302.3C34.3451 300.38 33.6251 299.024 32.2211 299.024C30.8171 299.024 30.0971 300.38 30.0971 302.3Z" fill="#585757"/>
<path d="M22.8745 338.402C22.8745 336.902 23.4385 335.954 25.1905 334.91C26.3905 334.178 27.2785 333.734 27.2785 332.69C27.2905 331.742 26.6065 331.274 25.7425 331.274C24.8545 331.274 24.1585 331.79 24.1585 332.918V333.086H22.9825V332.858C22.9825 331.358 23.9065 330.242 25.7545 330.242C27.5065 330.242 28.4905 331.238 28.4905 332.63C28.4905 334.142 27.3505 334.814 26.1865 335.486C24.9145 336.254 24.2545 336.842 24.2545 337.67V337.73H28.5145V338.75H22.8745V338.402ZM32.5788 338.87C30.6708 338.87 29.6028 337.718 29.6028 336.17H30.7068C30.7428 337.262 31.5588 337.874 32.5548 337.874C33.5268 337.874 34.4268 337.298 34.4268 335.918C34.4268 334.526 33.5268 333.962 32.5788 333.962C31.8828 333.962 31.2588 334.262 30.9228 334.838H29.7708L30.4548 330.35H34.8828V331.322H31.2948L30.8988 333.83C31.1388 333.506 31.7988 333.014 32.8668 333.014C34.4388 333.014 35.6268 334.094 35.6268 335.918C35.6268 337.778 34.4148 338.87 32.5788 338.87Z" fill="#585757"/>
<path d="M32.2211 371.12C30.4691 371.12 28.9451 369.8 28.9451 366.8C28.9451 363.824 30.4691 362.492 32.2211 362.492C33.9851 362.492 35.5091 363.824 35.5091 366.8C35.5091 369.8 33.9851 371.12 32.2211 371.12ZM30.0971 366.8C30.0971 368.732 30.8171 370.088 32.2211 370.088C33.6251 370.088 34.3451 368.732 34.3451 366.8C34.3451 364.88 33.6251 363.524 32.2211 363.524C30.8171 363.524 30.0971 364.88 30.0971 366.8Z" fill="#585757"/>
<path d="M44 226H791" stroke="#E8E8E8"/>
<path d="M44 253H791" stroke="#E8E8E8"/>
<path d="M44 280H791" stroke="#E8E8E8"/>
<path d="M44 307H791" stroke="#E8E8E8"/>
<path d="M44 334H791" stroke="#E8E8E8"/>
<path d="M44 361H791" stroke="#E8E8E8"/>
<path d="M46 361L125 347.5L202 280.5L254 253" stroke="#BD2D87" stroke-width="2" stroke-linecap="round"/>
<path d="M202 280.5L254 253L316.5 351.5L383 278L502.5 317" stroke="#BD2D87" stroke-width="2" stroke-linecap="round" stroke-dasharray="4 4"/>
<circle cx="126" cy="349" r="6" fill="#BD2D87"/>
<circle cx="200" cy="283" r="6" fill="#BD2D87"/>
<circle cx="314" cy="349" r="6" fill="#BD2D87"/>
<circle cx="254" cy="255" r="6" fill="#BD2D87"/>
<circle cx="381" cy="277" r="6" fill="#BD2D87"/>
<circle cx="433" cy="295" r="6" fill="#BD2D87"/>
<circle cx="503" cy="318" r="6" fill="#BD2D87"/>
<path d="M46 361L121.5 311.5L197.5 347.5L250.5 325.5" stroke="#D99125" stroke-width="2" stroke-linecap="round"/>
<path d="M197.5 347.5L250.5 325.5L341.5 280.5L402 307.5L535.5 229.5" stroke="#D99125" stroke-width="2" stroke-linecap="round" stroke-dasharray="4 4"/>
<circle cx="120" cy="311" r="6" fill="#D99125"/>
<circle cx="194" cy="347" r="6" fill="#D99125"/>
<circle cx="253" cy="323" r="6" fill="#D99125"/>
<circle cx="341" cy="279" r="6" fill="#D99125"/>
<circle cx="385" cy="299" r="6" fill="#D99125"/>
<circle cx="446" cy="280" r="6" fill="#D99125"/>
<circle cx="510" cy="244" r="6" fill="#D99125"/>
<path d="M46 361L120 240L151.5 280.5L250.5 325.5" stroke="#28666E" stroke-width="2" stroke-linecap="round"/>
<path d="M250.5 325.5L316 336.5L374 254.5L497.5 282.5" stroke="#28666E" stroke-width="2" stroke-linecap="round" stroke-dasharray="4 4"/>
<circle cx="121" cy="238" r="6" fill="#28666E"/>
<circle cx="148" cy="279" r="6" fill="#28666E"/>
<circle cx="253" cy="323" r="6" fill="#28666E"/>
<circle cx="317" cy="335" r="6" fill="#28666E"/>
<circle cx="374" cy="255" r="6" fill="#28666E"/>
<circle cx="444" cy="267" r="6" fill="#28666E"/>
<circle cx="498" cy="285" r="6" fill="#28666E"/>
<path d="M48.5373 379.12C46.5573 379.12 45.2853 377.992 45.2853 375.856H46.5333C46.5333 377.272 47.3013 378.028 48.5493 378.028C49.8093 378.028 50.5773 377.26 50.5773 375.736V370.6H51.8253V375.832C51.8253 377.98 50.5293 379.12 48.5373 379.12ZM54.9483 379.12C53.7843 379.12 52.8603 378.604 52.8603 377.368C52.8603 376.168 53.7363 375.676 54.8523 375.544L56.4003 375.364C56.9763 375.292 57.1683 375.184 57.1683 374.992V374.824C57.1683 373.828 56.6523 373.564 55.7763 373.564C54.8763 373.564 54.3723 373.828 54.3723 374.62V374.764H53.2083V374.512C53.2083 373.264 54.0843 372.64 55.8003 372.64C57.5643 372.64 58.3803 373.3 58.3803 374.812V379H57.2403V377.992H57.1923C57.0723 378.232 56.4843 379.12 54.9483 379.12ZM54.0723 377.308C54.0723 377.896 54.4923 378.172 55.2483 378.172C56.5683 378.172 57.1683 377.356 57.1683 376.684V376C57.0843 376.132 56.9283 376.216 56.3163 376.288L55.1403 376.444C54.3603 376.54 54.0723 376.816 54.0723 377.308ZM64.1137 375.388C64.1137 374.272 63.6337 373.66 62.6497 373.66C61.6657 373.66 60.9817 374.272 60.9817 375.388V379H59.7697V372.76H60.9817V374.008H61.0177C61.1257 373.54 61.7257 372.64 63.1177 372.64C64.3417 372.64 65.3257 373.348 65.3257 375.112V379H64.1137V375.388Z" fill="#585757"/>
<path d="M112.492 379V370.6H117.892V371.692H113.74V374.308H117.16V375.34H113.74V379H112.492ZM121.287 379.12C119.607 379.12 118.263 378.136 118.263 375.892C118.263 373.6 119.631 372.64 121.239 372.64C122.847 372.64 124.083 373.612 124.083 375.796C124.083 376.012 124.071 376.132 124.047 376.264H119.427C119.523 377.572 120.183 378.172 121.299 378.172C122.067 378.172 122.655 377.896 122.919 377.164H123.999C123.627 378.556 122.559 379.12 121.287 379.12ZM119.439 375.352H122.931C122.907 374.26 122.295 373.588 121.227 373.588C120.231 373.588 119.547 374.164 119.439 375.352ZM126.337 375.88V379H125.125V372.76H126.337V374.2H126.361C126.553 373.468 127.141 372.712 128.281 372.712C128.437 372.712 128.605 372.724 128.749 372.772V373.792C128.593 373.768 128.449 373.756 128.293 373.756C127.129 373.756 126.337 374.488 126.337 375.88Z" fill="#585757"/>
<path d="M174.777 379V370.6H176.313L179.121 377.344L181.929 370.6H183.465V379H182.217V372.832H182.169L179.613 379H178.629L176.061 372.832H176.025V379H174.777ZM186.585 379.12C185.421 379.12 184.497 378.604 184.497 377.368C184.497 376.168 185.373 375.676 186.489 375.544L188.037 375.364C188.613 375.292 188.805 375.184 188.805 374.992V374.824C188.805 373.828 188.289 373.564 187.413 373.564C186.513 373.564 186.009 373.828 186.009 374.62V374.764H184.845V374.512C184.845 373.264 185.721 372.64 187.437 372.64C189.201 372.64 190.017 373.3 190.017 374.812V379H188.877V377.992H188.829C188.709 378.232 188.121 379.12 186.585 379.12ZM185.709 377.308C185.709 377.896 186.129 378.172 186.885 378.172C188.205 378.172 188.805 377.356 188.805 376.684V376C188.721 376.132 188.565 376.216 187.953 376.288L186.777 376.444C185.997 376.54 185.709 376.816 185.709 377.308ZM192.618 375.88V379H191.406V372.76H192.618V374.2H192.642C192.834 373.468 193.422 372.712 194.562 372.712C194.718 372.712 194.886 372.724 195.03 372.772V373.792C194.874 373.768 194.73 373.756 194.574 373.756C193.41 373.756 192.618 374.488 192.618 375.88ZM198.068 379.12C196.568 379.12 195.5 378.496 195.464 377.14H196.556C196.652 377.908 197.312 378.184 198.08 378.184C198.848 378.184 199.448 377.908 199.448 377.236C199.448 376.732 199.1 376.528 198.512 376.396L197.348 376.132C196.172 375.856 195.644 375.256 195.644 374.416C195.644 373.276 196.616 372.64 198.068 372.64C199.556 372.64 200.456 373.312 200.516 374.596H199.496C199.388 373.828 198.86 373.576 198.08 373.576C197.264 373.576 196.82 373.852 196.82 374.392C196.82 374.824 197.096 375.088 197.744 375.232L198.92 375.496C199.928 375.736 200.684 376.144 200.684 377.212C200.684 378.592 199.436 379.12 198.068 379.12Z" fill="#585757"/>
<path d="M246.76 379L249.916 370.6H251.476L254.632 379H253.324L252.616 377.068H248.776L248.068 379H246.76ZM249.124 376.12H252.268L250.732 371.908H250.66L249.124 376.12ZM256.307 379L253.943 372.76H255.179L257.051 377.848H257.099L258.971 372.76H260.207L257.831 379H256.307ZM262.337 375.88V379H261.125V372.76H262.337V374.2H262.361C262.553 373.468 263.141 372.712 264.281 372.712C264.437 372.712 264.605 372.724 264.749 372.772V373.792C264.593 373.768 264.449 373.756 264.293 373.756C263.129 373.756 262.337 374.488 262.337 375.88Z" fill="#585757"/>
<path d="M311.547 379V370.6H313.083L315.891 377.344L318.699 370.6H320.235V379H318.987V372.832H318.939L316.383 379H315.399L312.831 372.832H312.795V379H311.547ZM323.355 379.12C322.191 379.12 321.267 378.604 321.267 377.368C321.267 376.168 322.143 375.676 323.259 375.544L324.807 375.364C325.383 375.292 325.575 375.184 325.575 374.992V374.824C325.575 373.828 325.059 373.564 324.183 373.564C323.283 373.564 322.779 373.828 322.779 374.62V374.764H321.615V374.512C321.615 373.264 322.491 372.64 324.207 372.64C325.971 372.64 326.787 373.3 326.787 374.812V379H325.647V377.992H325.599C325.479 378.232 324.891 379.12 323.355 379.12ZM322.479 377.308C322.479 377.896 322.899 378.172 323.655 378.172C324.975 378.172 325.575 377.356 325.575 376.684V376C325.491 376.132 325.335 376.216 324.723 376.288L323.547 376.444C322.767 376.54 322.479 376.816 322.479 377.308ZM328.117 379V372.76H329.329V379H328.117ZM327.997 370.96C327.997 370.564 328.333 370.24 328.717 370.24C329.101 370.24 329.437 370.564 329.437 370.96C329.437 371.368 329.101 371.68 328.717 371.68C328.333 371.68 327.997 371.368 327.997 370.96Z" fill="#585757"/>
<path d="M379.592 379.12C377.612 379.12 376.34 377.992 376.34 375.856H377.588C377.588 377.272 378.356 378.028 379.604 378.028C380.864 378.028 381.632 377.26 381.632 375.736V370.6H382.88V375.832C382.88 377.98 381.584 379.12 379.592 379.12ZM385.427 376.372C385.427 377.488 385.907 378.1 386.891 378.1C387.875 378.1 388.559 377.488 388.559 376.372V372.76H389.771V379H388.559V377.752H388.523C388.415 378.22 387.815 379.12 386.423 379.12C385.199 379.12 384.215 378.412 384.215 376.648V372.76H385.427V376.372ZM391.117 379V372.76H392.329V379H391.117ZM390.997 370.96C390.997 370.564 391.333 370.24 391.717 370.24C392.101 370.24 392.437 370.564 392.437 370.96C392.437 371.368 392.101 371.68 391.717 371.68C391.333 371.68 390.997 371.368 390.997 370.96Z" fill="#585757"/>
<path d="M439.547 379V370.6H441.083L443.891 377.344L446.699 370.6H448.235V379H446.987V372.832H446.939L444.383 379H443.399L440.831 372.832H440.795V379H439.547ZM451.355 379.12C450.191 379.12 449.267 378.604 449.267 377.368C449.267 376.168 450.143 375.676 451.259 375.544L452.807 375.364C453.383 375.292 453.575 375.184 453.575 374.992V374.824C453.575 373.828 453.059 373.564 452.183 373.564C451.283 373.564 450.779 373.828 450.779 374.62V374.764H449.615V374.512C449.615 373.264 450.491 372.64 452.207 372.64C453.971 372.64 454.787 373.3 454.787 374.812V379H453.647V377.992H453.599C453.479 378.232 452.891 379.12 451.355 379.12ZM450.479 377.308C450.479 377.896 450.899 378.172 451.655 378.172C452.975 378.172 453.575 377.356 453.575 376.684V376C453.491 376.132 453.335 376.216 452.723 376.288L451.547 376.444C450.767 376.54 450.479 376.816 450.479 377.308ZM456.117 379V372.76H457.329V379H456.117ZM455.997 370.96C455.997 370.564 456.333 370.24 456.717 370.24C457.101 370.24 457.437 370.564 457.437 370.96C457.437 371.368 457.101 371.68 456.717 371.68C456.333 371.68 455.997 371.368 455.997 370.96Z" fill="#585757"/>
<path d="M503.502 379L506.658 370.6H508.218L511.374 379H510.066L509.358 377.068H505.518L504.81 379H503.502ZM505.866 376.12H509.01L507.474 371.908H507.402L505.866 376.12ZM514.674 379.12C513.126 379.12 511.638 378.112 511.638 375.88C511.638 373.648 513.126 372.64 514.674 372.64C516.234 372.64 517.722 373.648 517.722 375.88C517.722 378.112 516.234 379.12 514.674 379.12ZM512.79 375.88C512.79 377.416 513.666 378.1 514.674 378.1C515.682 378.1 516.57 377.416 516.57 375.88C516.57 374.344 515.682 373.66 514.674 373.66C513.666 373.66 512.79 374.344 512.79 375.88ZM519.982 376.372C519.982 377.488 520.462 378.1 521.446 378.1C522.43 378.1 523.114 377.488 523.114 376.372V372.76H524.326V379H523.114V377.752H523.078C522.97 378.22 522.37 379.12 520.978 379.12C519.754 379.12 518.77 378.412 518.77 376.648V372.76H519.982V376.372Z" fill="#585757"/>
<path d="M574.605 379.12C572.481 379.12 571.305 378.076 571.305 376.456H572.576C572.625 377.356 573.225 378.064 574.617 378.064C575.865 378.064 576.513 377.512 576.513 376.648C576.513 375.82 575.925 375.472 575.001 375.292L573.873 375.064C572.445 374.776 571.545 374.104 571.545 372.808C571.545 371.356 572.661 370.492 574.557 370.492C576.453 370.492 577.581 371.368 577.581 372.844H576.309C576.297 372.052 575.685 371.548 574.533 371.548C573.321 371.548 572.841 372.112 572.841 372.808C572.841 373.396 573.201 373.852 574.197 374.056L575.277 374.272C576.957 374.608 577.821 375.292 577.821 376.636C577.821 378.268 576.537 379.12 574.605 379.12ZM581.709 379.12C580.029 379.12 578.685 378.136 578.685 375.892C578.685 373.6 580.053 372.64 581.661 372.64C583.269 372.64 584.505 373.612 584.505 375.796C584.505 376.012 584.493 376.132 584.469 376.264H579.849C579.945 377.572 580.605 378.172 581.721 378.172C582.489 378.172 583.077 377.896 583.341 377.164H584.421C584.049 378.556 582.981 379.12 581.709 379.12ZM579.861 375.352H583.353C583.329 374.26 582.717 373.588 581.649 373.588C580.653 373.588 579.969 374.164 579.861 375.352ZM585.547 381.28V372.76H586.759V373.744C587.131 373.06 587.923 372.64 588.847 372.64C590.239 372.64 591.631 373.612 591.631 375.88C591.631 378.136 590.239 379.12 588.847 379.12C587.923 379.12 587.131 378.7 586.759 378.016V381.28H585.547ZM586.699 375.88C586.699 377.404 587.635 378.1 588.595 378.1C589.567 378.1 590.479 377.404 590.479 375.88C590.479 374.356 589.567 373.66 588.595 373.66C587.635 373.66 586.699 374.356 586.699 375.88Z" fill="#585757"/>
<path d="M642.032 379.12C639.764 379.12 638.156 377.512 638.156 374.8C638.156 372.088 639.764 370.492 642.032 370.492C644.288 370.492 645.896 372.088 645.896 374.8C645.896 377.512 644.288 379.12 642.032 379.12ZM639.428 374.8C639.428 376.888 640.484 378.04 642.032 378.04C643.568 378.04 644.624 376.888 644.624 374.8C644.624 372.712 643.568 371.572 642.032 371.572C640.484 371.572 639.428 372.712 639.428 374.8ZM649.803 379.12C648.231 379.12 646.755 378.148 646.755 375.892C646.755 373.636 648.231 372.64 649.803 372.64C650.919 372.64 652.299 373.12 652.527 374.98H651.423C651.255 374.02 650.571 373.672 649.791 373.672C648.651 373.672 647.895 374.488 647.895 375.892C647.895 377.296 648.651 378.088 649.791 378.088C650.583 378.088 651.255 377.728 651.423 376.756H652.527C652.323 378.64 650.919 379.12 649.803 379.12ZM655.911 379.084C654.867 379.084 654.159 378.64 654.159 377.416V373.72H653.139V372.76H654.159V371.188H655.371V372.76H656.607V373.72H655.371V377.212C655.371 377.824 655.575 378.1 656.247 378.1C656.391 378.1 656.499 378.1 656.691 378.076V378.988C656.463 379.048 656.199 379.084 655.911 379.084Z" fill="#585757"/>
<path d="M703.426 379V370.6H704.77L708.874 377.044H708.91V370.6H710.158V379H708.766L704.698 372.616H704.674V379H703.426ZM714.236 379.12C712.688 379.12 711.2 378.112 711.2 375.88C711.2 373.648 712.688 372.64 714.236 372.64C715.796 372.64 717.284 373.648 717.284 375.88C717.284 378.112 715.796 379.12 714.236 379.12ZM712.352 375.88C712.352 377.416 713.228 378.1 714.236 378.1C715.244 378.1 716.132 377.416 716.132 375.88C716.132 374.344 715.244 373.66 714.236 373.66C713.228 373.66 712.352 374.344 712.352 375.88ZM719.854 379L717.49 372.76H718.726L720.598 377.848H720.646L722.518 372.76H723.754L721.378 379H719.854Z" fill="#585757"/>
<path d="M770.555 379V370.6H773.423C776.063 370.6 777.395 372.112 777.395 374.8C777.395 377.488 776.063 379 773.423 379H770.555ZM771.803 377.908H773.303C775.295 377.908 776.123 376.912 776.123 374.8C776.123 372.676 775.295 371.692 773.303 371.692H771.803V377.908ZM781.271 379.12C779.591 379.12 778.247 378.136 778.247 375.892C778.247 373.6 779.615 372.64 781.223 372.64C782.831 372.64 784.067 373.612 784.067 375.796C784.067 376.012 784.055 376.132 784.031 376.264H779.411C779.507 377.572 780.167 378.172 781.283 378.172C782.051 378.172 782.639 377.896 782.903 377.164H783.983C783.611 378.556 782.543 379.12 781.271 379.12ZM779.423 375.352H782.915C782.891 374.26 782.279 373.588 781.211 373.588C780.215 373.588 779.531 374.164 779.423 375.352ZM787.916 379.12C786.344 379.12 784.868 378.148 784.868 375.892C784.868 373.636 786.344 372.64 787.916 372.64C789.032 372.64 790.412 373.12 790.64 374.98H789.536C789.368 374.02 788.684 373.672 787.904 373.672C786.764 373.672 786.008 374.488 786.008 375.892C786.008 377.296 786.764 378.088 787.904 378.088C788.696 378.088 789.368 377.728 789.536 376.756H790.64C790.436 378.64 789.032 379.12 787.916 379.12Z" fill="#585757"/>
</svg>
