<svg width="20" height="20" viewBox="0 0 20 20" fill="none" xmlns="http://www.w3.org/2000/svg">
<path opacity="0.4" d="M16.7001 5.68373L11.9001 2.3254C10.5918 1.40873 8.58345 1.45873 7.32511 2.43373L3.15011 5.69206C2.31678 6.34206 1.65845 7.6754 1.65845 8.7254V14.4754C1.65845 16.6004 3.38345 18.3337 5.50845 18.3337H14.4918C16.6168 18.3337 18.3418 16.6087 18.3418 14.4837V8.83373C18.3418 7.70873 17.6168 6.3254 16.7001 5.68373Z" fill="#E8E8E8"/>
<path d="M10 15.625C9.65833 15.625 9.375 15.3417 9.375 15V12.5C9.375 12.1583 9.65833 11.875 10 11.875C10.3417 11.875 10.625 12.1583 10.625 12.5V15C10.625 15.3417 10.3417 15.625 10 15.625Z" fill="#E8E8E8"/>
</svg>
