<svg width="36" height="36" viewBox="0 0 36 36" fill="none" xmlns="http://www.w3.org/2000/svg">
<path d="M0.0295707 13.3597L4.45556 22.7101C4.51034 22.8259 4.63551 22.8885 4.7585 22.8629C16.1557 20.4957 26.7113 21.9256 30.8057 22.9913C30.9314 23.024 31.0581 22.9624 31.1165 22.8437L35.9686 12.9777C36.1045 12.7014 35.7685 12.4357 35.5422 12.6406L33.1993 14.7627L32.4982 14.9688C32.3377 15.016 32.207 15.1356 32.143 15.2937L31.4268 17.0628C31.0809 17.9172 30.3771 18.5658 29.5116 18.8278L29.3957 18.8628C28.9158 19.0081 28.4045 18.7714 28.1936 18.3063C27.8468 17.5413 28.0445 16.6329 28.6756 16.0916L30.6286 14.4165C30.7596 14.3042 30.7596 14.0978 30.6286 13.9855L29.4184 12.9475C29.306 12.8511 29.2359 12.7126 29.2238 12.5629L28.8914 8.45669C28.8707 8.20193 28.5559 8.10542 28.4022 8.30675L25.832 11.6735L24.0701 11.9153C23.9151 11.9365 23.8088 12.0862 23.8367 12.2439L24.2401 14.5276C24.4607 15.7764 23.9301 17.039 22.8933 17.7326C22.3046 18.1265 21.525 18.0303 21.0443 17.5046L20.9988 17.4548C20.2421 16.6274 20.1701 15.364 20.8276 14.4519L22.6288 11.9533C22.7326 11.8093 22.6803 11.6039 22.5212 11.5302L20.3176 10.5096C20.1799 10.4459 20.074 10.3267 20.0249 10.1803L18.0777 4.37922C17.9031 3.85899 17.1787 3.87909 17.0318 4.40825L15.4799 9.99856C15.3837 10.345 15.1313 10.6233 14.8012 10.7468L12.6844 11.5391C12.5081 11.6051 12.4472 11.829 12.5647 11.979L14.2371 14.1134C15.1067 15.2232 15.0835 16.81 14.1819 17.8926C13.6922 18.4806 12.8212 18.5263 12.2755 17.9927L11.9474 17.672C11.0855 16.8293 10.7353 15.5749 11.0318 14.3924L11.5651 12.2657C11.6064 12.1009 11.4965 11.9366 11.3317 11.9166L9.44457 11.6881C9.36767 11.6788 9.2982 11.6366 9.25331 11.5719L6.99556 8.3187C6.85168 8.11139 6.53454 8.19109 6.50054 8.4431L5.92896 12.6787C5.91877 12.7542 5.87911 12.8222 5.81906 12.8672L4.54131 13.8236C4.47346 13.8744 4.46574 13.9752 4.52503 14.0362L6.52503 16.0947C6.83208 16.4107 7.00447 16.8385 7.00447 17.2845V17.4254C7.00447 18.3318 6.1449 18.9767 5.30201 18.7027C4.7431 18.5211 4.30293 18.0759 4.1182 17.5056L3.46313 15.4829C3.3745 15.2093 3.15558 15.001 2.88274 14.9308L2.29971 14.7808C2.25361 14.7689 2.21132 14.745 2.17697 14.7113L0.465753 13.034C0.244837 12.8174 -0.10386 13.0779 0.0295707 13.3597Z" fill="#FAC30F"/>
<path d="M5.18668 27.9393L5.49342 28.2173C5.40666 28.3917 5.29512 28.5807 5.15879 28.7843C5.02246 28.9878 4.85515 29.1804 4.65686 29.3622C4.46166 29.5439 4.22773 29.6929 3.95507 29.8092C3.68551 29.9255 3.37103 29.9836 3.01162 29.9836C2.50039 29.9836 2.05577 29.8928 1.67777 29.7111C1.30287 29.5257 0.98993 29.2767 0.738962 28.9642C0.491092 28.648 0.30519 28.29 0.181255 27.8902C0.0604183 27.4868 0 27.067 0 26.6308C0 26.1947 0.0619675 25.7622 0.185902 25.3333C0.309837 24.9045 0.494191 24.5156 0.738962 24.1667C0.983733 23.8141 1.28892 23.5343 1.65453 23.3271C2.02324 23.1163 2.44926 23.0109 2.93261 23.0109C3.22386 23.0109 3.47947 23.0509 3.69946 23.1308C3.91944 23.2108 4.09915 23.2926 4.23857 23.3762C4.3811 23.4561 4.48025 23.4961 4.53602 23.4961C4.65376 23.4961 4.72657 23.447 4.75445 23.3489C4.78544 23.2508 4.81797 23.1345 4.85205 23H5.17738L5.30287 25.5787H4.96824C4.88768 25.1571 4.75136 24.7972 4.55926 24.4992C4.36716 24.2012 4.14562 23.9722 3.89465 23.8123C3.64369 23.6524 3.39117 23.5724 3.1371 23.5724C2.74981 23.5724 2.43067 23.7105 2.17971 23.9868C1.93184 24.2593 1.74748 24.6264 1.62665 25.088C1.50891 25.5496 1.45004 26.0639 1.45004 26.6308C1.45004 27.1942 1.5275 27.683 1.68242 28.0974C1.83734 28.5117 2.05267 28.8315 2.32843 29.0569C2.60728 29.2822 2.92796 29.3949 3.29047 29.3949C3.59101 29.3949 3.85902 29.3222 4.0945 29.1768C4.33308 29.0314 4.54221 28.8479 4.72192 28.6262C4.90472 28.4008 5.05964 28.1719 5.18668 27.9393Z" fill="#FAC30F"/>
<path d="M12.0046 29.8419H9.15104V29.4494C9.39891 29.4494 9.57242 29.4258 9.67157 29.3785C9.77072 29.3276 9.82029 29.2458 9.82029 29.1332C9.82029 29.1005 9.81255 29.0441 9.79706 28.9642C9.78156 28.8806 9.74593 28.7479 9.69016 28.5662C9.63439 28.3845 9.54454 28.1319 9.4206 27.8084H7.59411C7.58172 27.8448 7.55693 27.9174 7.51975 28.0265C7.48567 28.1319 7.44849 28.2482 7.40821 28.3754C7.36793 28.499 7.3323 28.6134 7.30132 28.7188C7.27343 28.8206 7.25949 28.8879 7.25949 28.9206C7.25949 29.2368 7.51201 29.413 8.01704 29.4494V29.8419H5.89775V29.4494C6.02788 29.4203 6.14097 29.3785 6.23702 29.324C6.33307 29.2658 6.42293 29.1695 6.50658 29.035C6.59334 28.8969 6.68319 28.697 6.77614 28.4354L8.67699 23.0109H9.01162L11.1263 28.6589C11.2347 28.9533 11.371 29.1568 11.5352 29.2695C11.7026 29.3821 11.859 29.4421 12.0046 29.4494V29.8419ZM9.20217 27.2305L8.44926 25.2625L7.77537 27.2305H9.20217Z" fill="#FAC30F"/>
<path d="M18.6646 29.8419H16.4198L14.5701 26.8217C14.5453 26.8289 14.5066 26.8326 14.4539 26.8326C14.4322 26.8326 14.4074 26.8326 14.3795 26.8326C14.3548 26.8289 14.3346 26.8271 14.3191 26.8271V28.5771C14.3191 28.8969 14.3687 29.1223 14.4679 29.2531C14.567 29.384 14.7808 29.4494 15.1092 29.4494V29.8419H12.2184V29.4494C12.4477 29.4494 12.6181 29.4203 12.7297 29.3622C12.8412 29.304 12.914 29.2095 12.9481 29.0787C12.9822 28.9442 12.9992 28.7625 12.9992 28.5335V24.3357C12.9992 24.1285 12.9822 23.9686 12.9481 23.8559C12.914 23.7396 12.8412 23.6597 12.7297 23.616C12.6181 23.5724 12.4477 23.5506 12.2184 23.5506V23.1581H14.5794C14.9047 23.1581 15.2208 23.1763 15.5275 23.2126C15.8373 23.2453 16.1146 23.3198 16.3594 23.4361C16.6042 23.5488 16.7994 23.7196 16.945 23.9486C17.0906 24.1776 17.1634 24.4865 17.1634 24.8754C17.1634 25.406 17.055 25.8185 16.8381 26.1129C16.6212 26.4073 16.3548 26.5927 16.0387 26.669L17.2703 28.3808C17.5399 28.7552 17.7754 29.0241 17.9768 29.1877C18.1782 29.3512 18.4074 29.4385 18.6646 29.4494V29.8419ZM15.7785 24.9735C15.7785 24.77 15.7583 24.5737 15.718 24.3847C15.6778 24.1957 15.5848 24.0413 15.4392 23.9213C15.2967 23.7978 15.0658 23.736 14.7467 23.736C14.6445 23.736 14.5577 23.7414 14.4864 23.7523C14.4183 23.7596 14.3625 23.7632 14.3191 23.7632V26.2438C14.4493 26.2656 14.6042 26.2765 14.7839 26.2765C15.0411 26.2765 15.2703 26.1584 15.4717 25.9221C15.6762 25.6859 15.7785 25.3697 15.7785 24.9735Z" fill="#FAC30F"/>
<path d="M21.3648 29.8419H18.4322V29.4494C18.6615 29.4494 18.8335 29.4258 18.9481 29.3785C19.0658 29.3276 19.1433 29.2404 19.1805 29.1168C19.2208 28.9933 19.2409 28.817 19.2409 28.588V24.4774C19.2409 24.1321 19.1913 23.8923 19.0922 23.7578C18.9961 23.6197 18.7761 23.5506 18.4322 23.5506V23.1581H21.3648V23.5506C21.024 23.5506 20.8056 23.6197 20.7095 23.7578C20.6135 23.8923 20.5655 24.1321 20.5655 24.4774V28.588C20.5655 28.817 20.584 28.9933 20.6212 29.1168C20.6615 29.2404 20.739 29.3276 20.8536 29.3785C20.9682 29.4258 21.1386 29.4494 21.3648 29.4494V29.8419Z" fill="#FAC30F"/>
<path d="M29.4795 29.8419H26.426V29.4494C26.7699 29.4494 27.0085 29.4021 27.1417 29.3076C27.275 29.2131 27.3416 28.9951 27.3416 28.6534V24.352L25.2688 29.8419H24.9992L22.9404 24.183V28.6534C22.9404 29.0169 23.0101 29.2404 23.1495 29.324C23.2889 29.4076 23.4965 29.4494 23.7723 29.4494V29.8419H21.6019V29.4494C21.8683 29.4494 22.0697 29.4076 22.206 29.324C22.3424 29.2404 22.4105 29.0169 22.4105 28.6534V24.412C22.4105 24.183 22.3997 24.0067 22.378 23.8832C22.3594 23.756 22.3005 23.6687 22.2014 23.6215C22.1053 23.5742 21.9427 23.5506 21.7134 23.5506V23.1581H24.0139L25.5383 27.5576L27.2486 23.1581H29.4795V23.5506C29.2502 23.5506 29.0767 23.5742 28.9589 23.6215C28.8412 23.6687 28.7622 23.756 28.7219 23.8832C28.6816 24.0067 28.6615 24.183 28.6615 24.412V28.6534C28.6615 28.8824 28.6816 29.0532 28.7219 29.1659C28.7622 29.2786 28.8412 29.3549 28.9589 29.3949C29.0767 29.4312 29.2502 29.4494 29.4795 29.4494V29.8419Z" fill="#FAC30F"/>
<path d="M36 26.5C36 26.9688 35.9303 27.4141 35.7909 27.8357C35.6545 28.2536 35.4547 28.6262 35.1913 28.9533C34.9311 29.2767 34.615 29.533 34.2432 29.722C33.8714 29.9073 33.45 30 32.9791 30C32.3532 30 31.8125 29.8401 31.3571 29.5202C30.9047 29.2004 30.5562 28.7752 30.3114 28.2445C30.0666 27.7103 29.9442 27.1288 29.9442 26.5C29.9442 26.013 30.0186 25.5587 30.1673 25.1371C30.3191 24.7155 30.5298 24.3466 30.7994 24.0304C31.072 23.7105 31.3912 23.4616 31.7568 23.2835C32.1255 23.1018 32.5283 23.0109 32.9651 23.0109C33.5941 23.0109 34.1348 23.1708 34.5871 23.4907C35.0395 23.8069 35.3881 24.2303 35.6328 24.7609C35.8776 25.2879 36 25.8676 36 26.5ZM34.4849 26.5327C34.4849 26.1983 34.4601 25.8549 34.4105 25.5023C34.3641 25.1498 34.2835 24.8227 34.1689 24.521C34.0573 24.2194 33.9024 23.9759 33.7041 23.7905C33.5089 23.6015 33.2626 23.507 32.9651 23.507C32.6677 23.507 32.4214 23.5997 32.2262 23.785C32.031 23.9704 31.8776 24.2121 31.7661 24.5101C31.6545 24.8045 31.5755 25.1244 31.529 25.4696C31.4826 25.8149 31.4593 26.1456 31.4593 26.4618C31.4593 26.7526 31.4826 27.0724 31.529 27.4213C31.5755 27.7666 31.6545 28.0974 31.7661 28.4136C31.8776 28.7261 32.031 28.9842 32.2262 29.1877C32.4214 29.3876 32.6677 29.4875 32.9651 29.4875C33.2626 29.4875 33.5089 29.3949 33.7041 29.2095C33.9024 29.0205 34.0573 28.777 34.1689 28.479C34.2835 28.1809 34.3641 27.8611 34.4105 27.5195C34.4601 27.1742 34.4849 26.8453 34.4849 26.5327Z" fill="#FAC30F"/>
</svg>
